<svg width="211" height="155" viewBox="0 0 211 155" fill="none" xmlns="http://www.w3.org/2000/svg">
<g clip-path="url(#clip0_2077_92)">
<path d="M97.689 65.1506L95.6211 63.9972C95.4523 63.9068 95.2413 63.9746 95.1358 64.1329C94.4184 65.422 93.7431 66.3492 93.1312 66.9145C92.5193 67.4799 91.7808 67.9322 90.9156 68.2714C90.0505 68.6107 89.1432 68.7916 88.2147 68.7916C86.3157 68.7916 84.712 68.0679 83.4249 66.6432C82.2221 65.3089 81.5469 63.5675 81.4203 61.5096H98.111C98.2165 61.5096 98.3009 61.4643 98.3642 61.3965C98.4275 61.3286 98.4697 61.2156 98.4697 61.1251C98.4486 58.2756 97.7101 55.8558 96.2963 53.9335C94.2918 51.2197 91.5909 49.8402 88.2569 49.8402C84.923 49.8402 82.3909 51.1971 80.4496 53.8431C78.9304 55.9237 78.1497 58.3208 78.1497 60.9894C78.1497 63.658 79.057 66.3944 80.8506 68.6107C82.6652 70.8722 85.1973 72.0029 88.3835 72.0029C91.5698 72.0029 91.1266 71.7542 92.2661 71.3019C93.4055 70.8269 94.4606 70.1259 95.3679 69.2439C96.2752 68.3393 97.0982 67.1407 97.7945 65.6933C97.8789 65.4898 97.8156 65.2637 97.6468 65.1732L97.689 65.1506ZM83.7836 54.9512C85.0496 53.73 86.5689 53.1194 88.3413 53.1194C90.1138 53.1194 90.4514 53.3682 91.422 53.8431C92.3927 54.318 93.1734 54.9738 93.7642 55.7427C94.2707 56.4212 94.6927 57.3484 94.9881 58.4339H81.8212C82.2854 56.8961 82.9606 55.7201 83.7836 54.9286V54.9512Z" fill="url(#paint0_linear_2077_92)"/>
<path d="M102.732 78.9231H105.18C105.391 78.9231 105.559 78.7422 105.559 78.516V68.6333C106.446 69.6283 107.416 70.3972 108.45 70.9626C109.758 71.6637 111.214 72.0029 112.776 72.0029C115.54 72.0029 117.946 70.9174 119.908 68.7463C121.87 66.5979 122.862 63.9293 122.862 60.8537C122.862 57.7781 121.849 55.1999 119.887 53.0515C117.903 50.9031 115.498 49.8176 112.713 49.8176C109.927 49.8176 109.653 50.202 108.345 50.9257C107.332 51.4911 106.403 52.3052 105.559 53.3455V50.7448C105.559 50.5186 105.391 50.3377 105.18 50.3377H102.732C102.521 50.3377 102.352 50.5186 102.352 50.7448V78.516C102.352 78.7422 102.521 78.9231 102.732 78.9231ZM107.416 55.4035C108.788 53.9109 110.497 53.142 112.48 53.142C114.464 53.142 114.97 53.4812 116.046 54.1596C117.123 54.8381 118.009 55.8105 118.642 57.0318C119.296 58.253 119.612 59.5873 119.612 60.9442C119.612 62.3011 119.275 63.6127 118.642 64.8565C117.988 66.1004 117.102 67.0728 116.025 67.7513C113.831 69.1308 111.151 69.1082 108.893 67.7513C107.754 67.0728 106.868 66.123 106.277 64.9696C105.665 63.7936 105.348 62.4594 105.348 60.9894C105.348 58.7505 106.045 56.8735 107.416 55.3582V55.4035Z" fill="url(#paint1_linear_2077_92)"/>
<path d="M135.945 72.0255C137.506 72.0255 138.962 71.6637 140.291 70.9852C141.346 70.4198 142.317 69.6509 143.203 68.6559V71.0983C143.203 71.3244 143.372 71.5054 143.583 71.5054H145.989C146.2 71.5054 146.368 71.3244 146.368 71.0983V50.7674C146.368 50.5412 146.2 50.3603 145.989 50.3603H143.583C143.372 50.3603 143.203 50.5412 143.203 50.7674V53.3681C142.38 52.3504 141.452 51.5363 140.418 50.9709C139.11 50.2246 137.633 49.8628 136.008 49.8628C133.223 49.8628 130.796 50.9483 128.813 53.0967C126.829 55.2452 125.837 57.8685 125.837 60.8989C125.837 63.9293 126.829 66.6431 128.792 68.7916C130.754 70.94 133.159 72.0481 135.945 72.0481V72.0255ZM130.015 57.0318C130.669 55.8105 131.535 54.8381 132.632 54.1596C133.729 53.4812 134.932 53.142 136.219 53.142C138.224 53.142 139.933 53.9109 141.304 55.4035C142.676 56.8961 143.372 58.7957 143.372 61.0346C143.372 63.2735 143.056 63.8389 142.444 65.0149C141.832 66.1682 140.946 67.118 139.827 67.7965C137.569 69.1534 134.869 69.176 132.674 67.7965C131.577 67.118 130.691 66.123 130.058 64.9018C129.403 63.658 129.087 62.3463 129.087 60.9894C129.087 59.6325 129.403 58.2982 130.058 57.077L130.015 57.0318Z" fill="url(#paint2_linear_2077_92)"/>
<path d="M152.678 71.2114C153.711 71.7541 154.83 72.0255 155.969 72.0255C157.7 72.0255 159.177 71.3923 160.337 70.1711C161.498 68.9499 162.088 67.412 162.088 65.6481C162.088 63.8841 161.751 63.2283 161.055 62.2106C160.358 61.2155 159.113 60.2205 157.214 59.1802C155.779 58.3887 154.83 57.6876 154.387 57.1222C153.965 56.6021 153.775 56.0593 153.775 55.4939C153.775 54.9286 154.007 54.318 154.513 53.8204C155.02 53.3229 155.589 53.0741 156.307 53.0741C157.446 53.0741 158.649 53.73 159.873 54.9964C159.936 55.0642 160.042 55.1321 160.126 55.1095C160.232 55.1095 160.316 55.0642 160.379 54.9964L161.941 53.255C162.004 53.1872 162.046 53.0741 162.046 52.9837C162.046 52.8706 162.004 52.7801 161.941 52.7123C160.105 50.8126 158.248 49.8628 156.412 49.8628C154.577 49.8628 153.479 50.4056 152.424 51.5137C151.369 52.5992 150.842 54.0013 150.842 55.6522C150.842 57.3031 151.179 58.0494 151.833 59.0445C152.488 60.0169 153.669 60.9894 155.463 61.9618C157.003 62.7986 157.995 63.4996 158.417 64.0198C158.818 64.5399 159.008 65.1053 159.008 65.7611C159.008 66.417 158.712 67.2537 158.1 67.8417C157.467 68.4523 156.75 68.7463 155.843 68.7463C154.555 68.7463 153.311 68.0227 152.15 66.6205C152.087 66.5301 151.981 66.4848 151.876 66.4848C151.77 66.4848 151.665 66.5301 151.601 66.6205L150.061 68.4976C149.934 68.6333 149.934 68.8594 150.061 68.9951C150.736 69.9449 151.622 70.6912 152.656 71.2114H152.678Z" fill="url(#paint3_linear_2077_92)"/>
<path d="M175.741 72.0255C178.737 72.0255 181.227 70.9174 183.126 68.7011C185.025 66.5075 185.996 63.9068 185.996 60.9894C185.996 58.0721 185.088 55.5166 183.274 53.3682C181.29 51.0162 178.758 49.8402 175.741 49.8402C172.723 49.8402 170.17 51.0388 168.187 53.3908C166.393 55.5166 165.465 58.0721 165.465 60.9894C165.465 63.9068 166.435 66.5075 168.334 68.7011C170.254 70.8948 172.744 72.0255 175.741 72.0255ZM170.761 55.4714C172.132 53.9561 173.821 53.1872 175.72 53.1872C177.619 53.1872 179.286 53.9561 180.678 55.4714C182.071 56.9866 182.767 58.8636 182.767 61.0346C182.767 63.2057 182.451 63.7484 181.818 64.947C181.185 66.1456 180.32 67.0955 179.265 67.7513C178.188 68.4071 177.007 68.7464 175.72 68.7464C174.432 68.7464 173.251 68.4071 172.175 67.7513C171.099 67.0955 170.254 66.1683 169.621 64.947C168.988 63.7484 168.672 62.4142 168.672 61.0346C168.672 58.8636 169.368 57.0092 170.761 55.4714Z" fill="url(#paint4_linear_2077_92)"/>
<path d="M88.088 83.9888C84.6697 83.9888 81.9055 85.4136 79.8587 88.1952C78.2551 90.3889 77.4321 92.9218 77.4321 95.726C77.4321 98.5303 78.3817 101.402 80.2807 103.754C82.1798 106.129 84.8596 107.328 88.2146 107.328C91.5697 107.328 91.1054 107.079 92.3082 106.581C93.5109 106.084 94.6082 105.36 95.5788 104.41C96.5494 103.46 97.3935 102.194 98.132 100.679C98.2375 100.475 98.1531 100.226 97.9632 100.113L95.7898 98.8921C95.5999 98.7791 95.3889 98.8469 95.2834 99.0504C94.5238 100.407 93.8063 101.402 93.1733 101.99C92.5403 102.578 91.7596 103.053 90.8311 103.415C89.9238 103.777 88.9532 103.958 88.0036 103.958C86.0201 103.958 84.311 103.189 82.9605 101.696C81.6945 100.272 80.9771 98.4624 80.8505 96.2914H98.4274C98.5329 96.2914 98.6384 96.2462 98.7017 96.1783C98.765 96.0879 98.8072 95.9974 98.8072 95.8843C98.7861 92.8765 98.0054 90.321 96.5283 88.3083C94.4183 85.4362 91.5697 83.9888 88.0669 83.9888H88.088ZM81.2514 93.0801C81.7578 91.4518 82.433 90.208 83.3192 89.3712C84.6486 88.1048 86.2523 87.4489 88.1091 87.4489C89.966 87.4489 90.3247 87.6977 91.3375 88.2178C92.3504 88.7154 93.1944 89.3938 93.8063 90.2306C94.355 90.9543 94.777 91.9041 95.0935 93.0801H81.2303H81.2514Z" fill="url(#paint5_linear_2077_92)"/>
<path d="M109.906 106.785H110.392C110.539 106.785 110.687 106.694 110.75 106.536L119.887 85.1196C119.95 84.9839 119.929 84.8482 119.866 84.7125C119.803 84.5995 119.676 84.5316 119.528 84.5316H116.764C116.616 84.5316 116.469 84.6221 116.405 84.7804L110.138 99.5706L103.787 84.7804C103.724 84.6221 103.576 84.5316 103.428 84.5316H100.685C100.559 84.5316 100.432 84.5995 100.348 84.7125C100.284 84.8256 100.263 84.9839 100.327 85.1196L109.526 106.536C109.59 106.694 109.737 106.785 109.885 106.785H109.906Z" fill="url(#paint6_linear_2077_92)"/>
<path d="M129.403 81.3881H131.935C132.041 81.3881 132.146 81.3429 132.21 81.2524L137.633 75.1916C137.738 75.0785 137.78 74.8976 137.717 74.7393C137.654 74.581 137.506 74.4905 137.358 74.4905H133.412C133.286 74.4905 133.159 74.5584 133.096 74.6715L129.087 80.7323C129.002 80.868 129.002 81.0263 129.066 81.162C129.129 81.2977 129.256 81.3881 129.403 81.3881Z" fill="url(#paint7_linear_2077_92)"/>
<path d="M142.486 106.355V84.9387C142.486 84.7125 142.317 84.5316 142.106 84.5316H139.574C139.363 84.5316 139.194 84.7125 139.194 84.9387V87.6751C138.329 86.5896 137.337 85.7528 136.261 85.1422C134.889 84.3733 133.328 83.9662 131.619 83.9662C128.686 83.9662 126.133 85.1196 124.044 87.3811C121.955 89.6426 120.9 92.4017 120.9 95.5904C120.9 98.7791 121.955 101.629 124.023 103.913C126.09 106.174 128.623 107.328 131.556 107.328C134.489 107.328 134.742 106.966 136.134 106.219C137.232 105.631 138.266 104.817 139.194 103.777V106.355C139.194 106.581 139.363 106.762 139.574 106.762H142.106C142.317 106.762 142.486 106.581 142.486 106.355ZM138.371 99.9551C137.738 101.176 136.81 102.171 135.607 102.872C133.244 104.297 130.395 104.32 128.074 102.872C126.913 102.149 125.985 101.108 125.31 99.8194C124.635 98.5077 124.276 97.1282 124.276 95.7034C124.276 94.2787 124.613 92.8766 125.289 91.5875C125.964 90.2985 126.892 89.2808 128.032 88.5571C129.171 87.856 130.437 87.4942 131.809 87.4942C133.919 87.4942 135.712 88.2857 137.147 89.8688C138.582 91.4518 139.321 93.4419 139.321 95.7939C139.321 98.1459 139.004 98.7565 138.35 99.9777L138.371 99.9551Z" fill="url(#paint8_linear_2077_92)"/>
<path d="M148.246 76.2772H150.821C151.032 76.2772 151.2 76.4581 151.2 76.6842V106.355C151.2 106.581 151.032 106.762 150.821 106.762H148.246C148.035 106.762 147.866 106.581 147.866 106.355V76.6842C147.866 76.4581 148.035 76.2772 148.246 76.2772Z" fill="url(#paint9_linear_2077_92)"/>
<path d="M160.464 78.4256C160.464 77.6793 160.211 77.046 159.725 76.5259C159.24 76.0058 158.649 75.7344 157.953 75.7344C157.256 75.7344 156.687 76.0058 156.201 76.5259C155.716 77.046 155.463 77.7019 155.463 78.4256C155.463 79.1492 155.716 79.7825 156.201 80.3026C156.687 80.8228 157.278 81.0941 157.953 81.0941C158.628 81.0941 159.24 80.8228 159.725 80.3026C160.211 79.7825 160.464 79.1492 160.464 78.4256Z" fill="url(#paint10_linear_2077_92)"/>
<path d="M159.282 84.5316H156.687C156.477 84.5316 156.307 84.7139 156.307 84.9387V106.378C156.307 106.603 156.477 106.785 156.687 106.785H159.282C159.492 106.785 159.662 106.603 159.662 106.378V84.9387C159.662 84.7139 159.492 84.5316 159.282 84.5316Z" fill="url(#paint11_linear_2077_92)"/>
<path d="M185.278 106.355V76.6842C185.278 76.4581 185.109 76.2772 184.898 76.2772H182.366C182.155 76.2772 181.987 76.4581 181.987 76.6842V87.6751C181.121 86.5896 180.13 85.7529 179.054 85.1422C177.682 84.3733 176.12 83.9663 174.411 83.9663C171.478 83.9663 168.925 85.1196 166.836 87.3811C164.747 89.6426 163.692 92.4017 163.692 95.5904C163.692 98.7791 164.747 101.629 166.815 103.913C168.883 106.174 171.415 107.328 174.348 107.328C177.281 107.328 177.534 106.966 178.927 106.219C180.024 105.631 181.058 104.817 181.987 103.777V106.355C181.987 106.581 182.155 106.762 182.366 106.762H184.898C185.109 106.762 185.278 106.581 185.278 106.355ZM181.164 99.9551C180.531 101.176 179.602 102.171 178.399 102.872C176.015 104.297 173.187 104.32 170.866 102.872C169.706 102.149 168.777 101.108 168.102 99.8194C167.427 98.5077 167.068 97.1282 167.068 95.7035C167.068 94.2787 167.406 92.8766 168.081 91.5875C168.756 90.2985 169.685 89.2808 170.824 88.5571C171.964 87.8561 173.23 87.4942 174.601 87.4942C176.711 87.4942 178.505 88.2857 179.94 89.8688C181.375 91.4518 182.113 93.442 182.113 95.7939C182.113 98.1459 181.797 98.7565 181.142 99.9777L181.164 99.9551Z" fill="url(#paint12_linear_2077_92)"/>
<path d="M210.62 84.5316H208.088C207.877 84.5316 207.708 84.7125 207.708 84.9387V87.6751C206.843 86.5896 205.852 85.7528 204.775 85.1422C203.404 84.3733 201.842 83.9662 200.133 83.9662C197.2 83.9662 194.647 85.1196 192.558 87.3811C190.469 89.6426 189.414 92.4017 189.414 95.5904C189.414 98.7791 190.469 101.629 192.537 103.913C194.605 106.174 197.137 107.328 200.07 107.328C203.003 107.328 203.256 106.966 204.649 106.219C205.746 105.631 206.78 104.817 207.708 103.777V106.355C207.708 106.581 207.877 106.762 208.088 106.762H210.62C210.831 106.762 211 106.581 211 106.355V84.9387C211 84.7125 210.831 84.5316 210.62 84.5316ZM206.886 99.9551C206.252 101.176 205.324 102.171 204.121 102.872C201.737 104.297 198.909 104.32 196.588 102.872C195.428 102.149 194.499 101.108 193.824 99.8194C193.149 98.5077 192.79 97.1282 192.79 95.7034C192.79 94.2787 193.128 92.8766 193.803 91.5875C194.478 90.2985 195.407 89.2808 196.546 88.5571C197.686 87.856 198.952 87.4942 200.323 87.4942C202.433 87.4942 204.227 88.2857 205.662 89.8688C207.097 91.4518 207.835 93.4419 207.835 95.7939C207.835 98.1459 207.519 98.7565 206.864 99.9777L206.886 99.9551Z" fill="url(#paint13_linear_2077_92)"/>
<path d="M27.9719 71.7541H7.9473C7.39868 71.7541 6.95557 72.229 6.95557 72.817V130.711C6.95557 131.299 7.39868 131.254 7.9473 131.254H27.9719C28.5206 131.254 28.9637 131.322 28.9637 130.734V72.7944C28.9637 72.2064 28.5206 71.7315 27.9719 71.7315V71.7541Z" fill="url(#paint14_linear_2077_92)"/>
<path d="M104.568 130.372C98.9339 126.528 66.9241 112.936 55.2342 71.6411C55.1498 71.3697 54.8966 71.234 54.6223 71.234C51.7104 71.2792 35.3151 71.4828 30.3142 71.1662C29.7656 71.1209 31.1582 71.7768 31.4537 72.2743C36.3068 80.574 47.8279 119.449 73.1277 131.096C73.5497 131.277 89.1854 139.735 104.505 131.593C104.969 131.345 105.011 130.621 104.568 130.327V130.372Z" fill="url(#paint15_linear_2077_92)"/>
<path d="M54.9174 70.6234C54.5587 69.1986 54.5587 67.7739 54.9174 66.3491C54.9596 66.2587 55.0018 66.1456 55.0229 66.0552C50.4019 63.0021 46.0973 59.3837 41.6029 56.1045C34.8084 56.8282 28.2039 55.7653 28.2039 55.7653C13.6865 53.5943 6.61775 60.4692 3.15723 67.2311C3.47374 67.5025 3.76915 67.8191 4.04346 68.1583C5.2673 69.1534 6.55445 70.2389 6.76546 71.9124C6.97647 73.5181 6.89207 77.9959 6.93427 79.6242C11.8296 78.0863 26.0727 79.7146 28.9213 79.8277C29.0901 79.8277 28.8369 74.1513 29.0057 74.1513C30.2506 74.1966 31.3479 74.2418 32.4451 74.2644C32.6772 74.2644 34.6185 79.2171 34.8506 79.2171C49.0092 80.0991 54.3477 77.7697 56.5633 75.9379C55.867 73.9026 55.1918 71.4149 54.8963 70.6234H54.9174Z" fill="#840072" style="fill:#840072;fill:color(display-p3 0.5176 0.0000 0.4471);fill-opacity:1;"/>
<path d="M76.1871 25.3707C73.2963 17.1615 67.6413 10.0604 60.3615 6.01227C51.5625 1.12742 41.2231 0.675124 31.3057 1.03696C21.3884 1.3988 11.3444 2.41648 1.65915 0.0871332C1.08943 -0.0485569 0.329805 -0.093787 0.118797 0.471588C0.0343937 0.697739 0.0765953 0.946504 0.118797 1.17265C1.38484 9.02007 5.41509 16.7544 12.0829 20.2371C23.4141 26.1849 37.7626 18.3148 49.3047 23.7877C53.757 25.8909 56.4157 30.2782 56.9643 35.3892C57.4918 40.2288 56.3946 45.0006 53.2928 48.6642C50.001 52.5766 44.4937 53.3003 39.8305 53.4586C34.7241 53.6395 29.6177 52.7575 24.5113 52.6444C19.4049 52.5314 14.0453 53.255 9.78295 56.2854C4.40226 60.1074 1.61695 66.9371 0.0976961 73.6312C-0.00780785 74.0835 -0.092211 74.6262 0.2032 74.9655C0.540812 75.3951 1.15274 75.2821 1.65915 75.169C11.26 72.7718 21.2829 73.7895 31.1369 74.1965C40.991 74.581 51.2671 74.2418 60.0661 69.4926C70.933 63.6127 78.2761 50.9031 78.3394 37.8542C78.3394 33.6026 77.6009 29.351 76.2082 25.3707H76.1871Z" fill="url(#paint16_linear_2077_92)"/>
<path opacity="0.4" d="M72.1568 22.4534C70.5742 18.247 63.1679 3.72818 39.746 3.32111C39.4295 3.32111 39.3662 3.81864 39.6827 3.86387C47.4267 5.37907 62.2183 7.25612 71.8192 22.6117C71.9458 22.8153 72.2623 22.6569 72.1779 22.4308L72.1568 22.4534Z" fill="white" style="fill:white;fill-opacity:1;"/>
<path d="M115.013 118.047C115.013 120.286 113.388 121.665 110.792 121.665H109.147V124.244H106.467V114.429H110.814C113.409 114.429 115.034 115.808 115.034 118.07L115.013 118.047ZM112.291 118.047C112.291 117.142 111.742 116.6 110.624 116.6H109.125V119.472H110.624C111.742 119.472 112.291 118.929 112.291 118.047Z" fill="#265D9E" style="fill:#265D9E;fill:color(display-p3 0.1490 0.3647 0.6196);fill-opacity:1;"/>
<path d="M116.595 123.362L117.481 121.304C118.325 121.869 119.507 122.276 120.625 122.276C121.744 122.276 122.166 121.959 122.166 121.485C122.166 119.924 116.764 121.055 116.764 117.414C116.764 113.773 118.157 114.225 120.963 114.225C123.769 114.225 123.474 114.519 124.402 115.084L123.579 117.142C122.672 116.645 121.765 116.374 120.942 116.374C120.119 116.374 119.401 116.758 119.401 117.256C119.401 118.748 124.782 117.64 124.782 121.258C124.782 124.877 123.39 124.425 120.583 124.425C117.777 124.425 117.481 123.995 116.574 123.339L116.595 123.362Z" fill="#265D9E" style="fill:#265D9E;fill:color(display-p3 0.1490 0.3647 0.6196);fill-opacity:1;"/>
<path d="M126.871 114.406H129.551V124.221H126.871V114.406Z" fill="#265D9E" style="fill:#265D9E;fill:color(display-p3 0.1490 0.3647 0.6196);fill-opacity:1;"/>
<path d="M131.788 119.336C131.788 116.351 134.003 114.225 137.021 114.225C140.038 114.225 140.186 114.881 141.114 116.08L139.405 117.685C138.814 116.939 138.076 116.532 137.169 116.532C135.607 116.532 134.531 117.663 134.531 119.336C134.531 121.01 135.607 122.14 137.169 122.14C138.73 122.14 138.814 121.733 139.405 120.987L141.114 122.593C140.186 123.791 138.772 124.447 137.021 124.447C134.003 124.447 131.788 122.321 131.788 119.336Z" fill="#265D9E" style="fill:#265D9E;fill:color(display-p3 0.1490 0.3647 0.6196);fill-opacity:1;"/>
<path d="M142.423 119.336C142.423 116.396 144.659 114.225 147.698 114.225C150.736 114.225 152.973 116.396 152.973 119.336C152.973 122.276 150.736 124.447 147.698 124.447C144.659 124.447 142.423 122.276 142.423 119.336ZM150.251 119.336C150.251 117.64 149.133 116.532 147.677 116.532C146.221 116.532 145.102 117.64 145.102 119.336C145.102 121.032 146.221 122.14 147.677 122.14C149.133 122.14 150.251 121.032 150.251 119.336Z" fill="#265D9E" style="fill:#265D9E;fill:color(display-p3 0.1490 0.3647 0.6196);fill-opacity:1;"/>
<path d="M155.188 114.406H157.868V122.027H162.405V124.221H155.188V114.406Z" fill="#265D9E" style="fill:#265D9E;fill:color(display-p3 0.1490 0.3647 0.6196);fill-opacity:1;"/>
<path d="M163.65 119.336C163.65 116.396 165.887 114.225 168.925 114.225C171.964 114.225 174.2 116.396 174.2 119.336C174.2 122.276 171.964 124.447 168.925 124.447C165.887 124.447 163.65 122.276 163.65 119.336ZM171.499 119.336C171.499 117.64 170.381 116.532 168.925 116.532C167.469 116.532 166.351 117.64 166.351 119.336C166.351 121.032 167.469 122.14 168.925 122.14C170.381 122.14 171.499 121.032 171.499 119.336Z" fill="#265D9E" style="fill:#265D9E;fill:color(display-p3 0.1490 0.3647 0.6196);fill-opacity:1;"/>
<path d="M182.809 119.11H185.194V123.181C184.096 123.995 182.598 124.425 181.206 124.425C178.188 124.425 175.973 122.299 175.973 119.314C175.973 116.328 178.188 114.203 181.269 114.203C184.35 114.203 184.476 114.836 185.426 115.989L183.717 117.595C183.063 116.848 182.324 116.509 181.417 116.509C179.792 116.509 178.695 117.617 178.695 119.314C178.695 121.01 179.771 122.118 181.374 122.118C182.978 122.118 182.345 122.027 182.83 121.801V119.11H182.809Z" fill="#265D9E" style="fill:#265D9E;fill:color(display-p3 0.1490 0.3647 0.6196);fill-opacity:1;"/>
<path d="M187.705 114.406H190.385V124.221H187.705V114.406ZM189.541 111.489H192.115L189.562 113.615H187.726L189.541 111.489Z" fill="#265D9E" style="fill:#265D9E;fill:color(display-p3 0.1490 0.3647 0.6196);fill-opacity:1;"/>
<path d="M200.112 122.321H196.103L195.364 124.221H192.621L196.82 114.406H199.458L203.657 124.221H200.872L200.133 122.321H200.112ZM199.31 120.286L198.086 117.142L196.863 120.286H199.31Z" fill="#265D9E" style="fill:#265D9E;fill:color(display-p3 0.1490 0.3647 0.6196);fill-opacity:1;"/>
<g opacity="0.6">
<path d="M113.029 114.338C113.662 114.632 114.147 115.062 114.485 115.605C114.823 116.147 114.992 116.803 114.992 117.527C114.992 118.251 114.823 118.906 114.485 119.449C114.147 119.992 113.662 120.399 113.029 120.716C112.396 121.01 111.658 121.168 110.792 121.168H109.147V123.746H106.467V113.931H110.814C111.679 113.931 112.417 114.089 113.05 114.383L113.029 114.338ZM111.869 118.59C112.143 118.341 112.291 117.979 112.291 117.527C112.291 117.075 112.143 116.713 111.869 116.464C111.594 116.215 111.172 116.08 110.624 116.08H109.125V118.952H110.624C111.172 118.952 111.594 118.839 111.869 118.59Z" fill="url(#paint17_linear_2077_92)"/>
<path d="M118.368 123.61C117.65 123.407 117.059 123.158 116.595 122.819L117.481 120.761C117.903 121.055 118.389 121.281 118.959 121.462C119.528 121.643 120.077 121.733 120.604 121.733C121.638 121.733 122.145 121.462 122.145 120.942C122.145 120.422 121.997 120.444 121.702 120.309C121.406 120.173 120.942 120.037 120.288 119.879C119.57 119.721 118.98 119.54 118.494 119.359C118.009 119.178 117.608 118.884 117.249 118.477C116.912 118.07 116.743 117.527 116.743 116.848C116.743 116.17 116.891 115.718 117.228 115.22C117.566 114.723 118.009 114.361 118.642 114.067C119.275 113.795 120.035 113.637 120.963 113.637C121.892 113.637 122.208 113.705 122.799 113.863C123.411 113.999 123.938 114.225 124.403 114.497L123.58 116.554C122.672 116.057 121.807 115.808 120.942 115.808C120.077 115.808 120.014 115.899 119.781 116.057C119.528 116.215 119.423 116.441 119.423 116.69C119.423 116.939 119.57 117.142 119.866 117.278C120.161 117.414 120.625 117.55 121.258 117.685C121.976 117.844 122.588 118.024 123.052 118.205C123.537 118.386 123.938 118.68 124.297 119.065C124.635 119.472 124.825 119.992 124.825 120.693C124.825 121.394 124.677 121.824 124.339 122.299C124.023 122.774 123.537 123.158 122.904 123.452C122.271 123.746 121.512 123.882 120.604 123.882C119.697 123.882 119.085 123.791 118.368 123.588V123.61Z" fill="url(#paint18_linear_2077_92)"/>
<path d="M126.85 113.886H129.53V123.701H126.85V113.886Z" fill="url(#paint19_linear_2077_92)"/>
<path d="M134.341 123.249C133.539 122.819 132.927 122.208 132.484 121.439C132.041 120.67 131.809 119.788 131.809 118.793C131.809 117.798 132.041 116.939 132.484 116.147C132.927 115.378 133.56 114.768 134.341 114.338C135.143 113.909 136.029 113.682 137.021 113.682C138.012 113.682 138.667 113.841 139.363 114.157C140.059 114.474 140.629 114.926 141.093 115.537L139.384 117.142C138.772 116.374 138.012 115.989 137.147 115.989C136.282 115.989 136.177 116.102 135.776 116.351C135.375 116.577 135.058 116.916 134.847 117.346C134.615 117.776 134.51 118.251 134.51 118.816C134.51 119.381 134.615 119.856 134.847 120.286C135.079 120.716 135.375 121.032 135.776 121.281C136.177 121.507 136.641 121.643 137.147 121.643C138.034 121.643 138.772 121.258 139.384 120.489L141.093 122.095C140.629 122.683 140.059 123.158 139.363 123.475C138.667 123.791 137.886 123.95 137.021 123.95C136.156 123.95 135.143 123.723 134.341 123.294V123.249Z" fill="url(#paint20_linear_2077_92)"/>
<path d="M144.976 123.249C144.174 122.819 143.541 122.208 143.098 121.417C142.634 120.648 142.423 119.766 142.423 118.793C142.423 117.821 142.655 116.939 143.098 116.17C143.562 115.401 144.174 114.791 144.976 114.338C145.778 113.909 146.685 113.682 147.677 113.682C148.668 113.682 149.576 113.909 150.378 114.338C151.179 114.768 151.812 115.378 152.256 116.17C152.72 116.939 152.952 117.821 152.952 118.793C152.952 119.766 152.72 120.648 152.256 121.417C151.791 122.186 151.179 122.796 150.378 123.249C149.576 123.678 148.668 123.904 147.677 123.904C146.685 123.904 145.778 123.678 144.976 123.249ZM148.985 121.258C149.365 121.032 149.681 120.693 149.913 120.263C150.145 119.834 150.251 119.359 150.251 118.793C150.251 118.228 150.145 117.753 149.913 117.323C149.681 116.894 149.386 116.577 148.985 116.328C148.605 116.102 148.162 115.966 147.677 115.966C147.191 115.966 146.769 116.08 146.368 116.328C145.989 116.554 145.672 116.894 145.44 117.323C145.208 117.753 145.102 118.228 145.102 118.793C145.102 119.359 145.208 119.834 145.44 120.263C145.672 120.693 145.968 121.01 146.368 121.258C146.748 121.485 147.191 121.62 147.677 121.62C148.162 121.62 148.584 121.507 148.985 121.258Z" fill="url(#paint21_linear_2077_92)"/>
<path d="M155.188 113.886H157.868V121.507H162.405V123.701H155.188V113.886Z" fill="url(#paint22_linear_2077_92)"/>
<path d="M166.224 123.249C165.422 122.819 164.789 122.208 164.346 121.417C163.882 120.648 163.671 119.766 163.671 118.793C163.671 117.821 163.903 116.939 164.346 116.17C164.81 115.401 165.422 114.791 166.224 114.338C167.026 113.909 167.933 113.682 168.925 113.682C169.917 113.682 170.824 113.909 171.626 114.338C172.428 114.768 173.061 115.378 173.504 116.17C173.968 116.939 174.2 117.821 174.2 118.793C174.2 119.766 173.968 120.648 173.504 121.417C173.04 122.186 172.428 122.796 171.626 123.249C170.824 123.678 169.917 123.904 168.925 123.904C167.933 123.904 167.026 123.678 166.224 123.249ZM170.233 121.258C170.613 121.032 170.93 120.693 171.162 120.263C171.394 119.834 171.499 119.359 171.499 118.793C171.499 118.228 171.394 117.753 171.162 117.323C170.93 116.894 170.634 116.577 170.233 116.328C169.853 116.102 169.41 115.966 168.925 115.966C168.44 115.966 168.018 116.08 167.617 116.328C167.237 116.554 166.92 116.894 166.688 117.323C166.456 117.753 166.351 118.228 166.351 118.793C166.351 119.359 166.456 119.834 166.688 120.263C166.92 120.693 167.216 121.01 167.617 121.258C167.997 121.485 168.44 121.62 168.925 121.62C169.41 121.62 169.832 121.507 170.233 121.258Z" fill="url(#paint23_linear_2077_92)"/>
<path d="M182.809 118.59H185.194V122.661C184.645 123.068 184.033 123.362 183.316 123.588C182.619 123.814 181.902 123.904 181.206 123.904C180.509 123.904 179.307 123.678 178.526 123.249C177.724 122.819 177.112 122.208 176.648 121.439C176.205 120.67 175.973 119.788 175.973 118.793C175.973 117.798 176.205 116.939 176.648 116.147C177.091 115.378 177.724 114.768 178.526 114.338C179.328 113.909 180.235 113.682 181.248 113.682C182.261 113.682 182.936 113.841 183.632 114.135C184.329 114.451 184.919 114.881 185.405 115.469L183.696 117.075C183.063 116.351 182.282 115.989 181.396 115.989C180.509 115.989 179.919 116.238 179.433 116.758C178.927 117.278 178.695 117.957 178.695 118.793C178.695 119.63 178.8 119.811 179.032 120.241C179.264 120.67 179.581 121.01 179.982 121.236C180.383 121.485 180.847 121.598 181.374 121.598C181.902 121.598 182.366 121.485 182.83 121.281V118.59H182.809Z" fill="url(#paint24_linear_2077_92)"/>
<path d="M187.705 113.886H190.385V123.701H187.705V113.886ZM189.541 110.969H192.115L189.562 113.094H187.726L189.541 110.969Z" fill="url(#paint25_linear_2077_92)"/>
<path d="M200.112 121.801H196.103L195.364 123.701H192.621L196.82 113.886H199.458L203.657 123.701H200.872L200.133 121.801H200.112ZM199.31 119.766L198.086 116.622L196.863 119.766H199.31Z" fill="url(#paint26_linear_2077_92)"/>
</g>
<path d="M48.6929 25.4385C48.4608 25.2124 48.1443 25.235 47.7012 25.2576C46.1819 25.3707 45.0636 26.2527 44.3883 27.9036C43.7553 29.4414 43.6498 31.0697 43.6287 32.3135C43.6287 32.6301 43.6287 32.9693 43.6287 33.286C43.6287 34.2132 43.6287 35.163 43.481 36.0902C43.2278 37.8994 42.6581 38.5552 41.0122 38.8719C40.2948 39.0075 39.5563 39.0528 38.7333 39.0754C38.7333 37.5602 38.7333 36.045 38.7333 34.5524C38.7333 32.8563 38.7333 31.1828 38.7333 29.4866C38.7333 29.2605 38.7755 29.0117 38.8388 28.6951C39.0498 27.7905 39.5563 27.3382 40.5269 27.2477C40.5691 27.2477 40.5902 27.2477 40.6324 27.2477H40.6746C41.1177 27.2251 41.4131 27.0894 41.5819 26.8181C41.7507 26.5467 41.7718 26.1848 41.6452 25.7325C41.5397 25.3933 41.3076 25.3029 41.1599 25.2802C41.0544 25.2802 40.9278 25.2576 40.7801 25.2576H38.3324C37.7627 25.2576 36.159 25.2576 35.5893 25.2576H35.5682C34.9985 25.2576 34.4077 25.2576 33.838 25.2576H31.3903C31.2426 25.2576 31.1371 25.2576 31.0104 25.2802C30.8838 25.2802 30.6306 25.3933 30.5251 25.7325C30.3985 26.1848 30.4196 26.5467 30.5884 26.8181C30.7572 27.0894 31.0527 27.2251 31.4958 27.2477H31.538C31.5802 27.2477 31.6013 27.2477 31.6435 27.2477C32.6141 27.3382 33.1416 27.7905 33.3315 28.6951C33.3948 29.0117 33.437 29.2605 33.437 29.4866C33.437 31.1828 33.437 32.8563 33.437 34.5524C33.437 36.0676 33.437 37.5602 33.437 39.0754C32.6141 39.0528 31.8756 39.0075 31.1582 38.8719C29.5123 38.5552 28.9426 37.8994 28.6894 36.0902C28.5628 35.163 28.5628 34.2132 28.5417 33.286C28.5417 32.9693 28.5417 32.6301 28.5417 32.3135C28.5206 31.0697 28.4151 29.4414 27.782 27.9036C27.1068 26.2527 25.9885 25.3707 24.4692 25.2576C24.0261 25.235 23.6885 25.1898 23.4775 25.4385C23.2454 25.6647 23.2454 26.0039 23.2454 26.5014C23.2454 26.705 23.2454 27.2704 23.9206 27.3608C24.427 27.4287 24.7646 27.7453 24.9334 28.3559C25.0389 28.7177 25.0811 29.1022 25.0811 29.5092C25.0811 30.0746 25.0811 30.6626 25.0811 31.228C25.0811 32.0421 25.0811 32.8563 25.0811 33.6478C25.0811 34.5298 25.1655 35.4118 25.3343 36.3616C25.9463 39.5955 28.0563 41.6083 31.1371 41.9023C31.6857 41.9475 32.2343 41.9475 32.7407 41.9475C32.9728 41.9475 33.2049 41.9475 33.4159 41.9475C33.4159 41.9475 33.437 41.9475 33.4581 41.9475C33.4581 42.4903 33.4581 43.5079 33.4581 44.6387C33.4581 46.4931 33.4581 47.3073 33.4581 48.1892C33.437 49.2295 32.9517 49.7497 31.9389 49.7949C31.749 49.7949 31.5802 49.8175 31.3903 49.8401H31.2637C31.1793 49.8401 30.8838 49.8628 30.7783 50.1794C30.6517 50.5186 30.6306 50.903 30.7361 51.3327C30.8416 51.7398 31.1582 51.8077 31.3692 51.8077C31.5802 51.8077 31.4747 51.8077 31.4958 51.8077C31.5169 51.8077 31.5591 51.8077 31.5802 51.8077C32.9095 51.8077 34.2389 51.8077 35.5893 51.8077H35.6104C36.9398 51.8077 39.3031 51.8077 40.6324 51.8077C40.6535 51.8077 40.6746 51.8077 40.7168 51.8077C40.7379 51.8077 40.8012 51.8077 40.8434 51.8077C41.0544 51.8077 41.3709 51.7398 41.4764 51.3327C41.5819 50.903 41.5608 50.5186 41.4342 50.1794C41.3287 49.8854 41.0333 49.8628 40.9489 49.8628H40.8223C40.6324 49.8175 40.4636 49.8175 40.2737 49.7949C39.2609 49.7271 38.7755 49.2069 38.7544 48.1892C38.7544 47.3073 38.7544 46.4931 38.7544 44.6387C38.7544 43.5079 38.7544 42.4903 38.7544 41.9475C38.7544 41.9475 38.7755 41.9475 38.7966 41.9475C39.0287 41.9475 39.2609 41.9475 39.4719 41.9475C39.9994 41.9475 40.548 41.9475 41.0755 41.9023C44.1562 41.6083 46.2663 39.5955 46.8782 36.3616C47.047 35.4344 47.1314 34.5298 47.1314 33.6478C47.1314 32.8337 47.1314 32.0195 47.1314 31.228C47.1314 30.6626 47.1314 30.0746 47.1314 29.5092C47.1314 29.1022 47.1736 28.7177 47.2792 28.3559C47.448 27.7453 47.7856 27.4287 48.292 27.3608C48.9672 27.2704 48.9672 26.6824 48.9672 26.5014C48.9672 26.0265 48.9672 25.6873 48.7351 25.4385H48.6929Z" fill="url(#paint27_linear_2077_92)"/>
<path opacity="0.1" d="M48.6929 25.4385C48.4608 25.2124 48.1443 25.235 47.7012 25.2576C46.1819 25.3707 45.0636 26.2527 44.3883 27.9036C43.7553 29.4414 43.6498 31.0697 43.6287 32.3135C43.6287 32.6301 43.6287 32.9693 43.6287 33.286C43.6287 34.2132 43.6287 35.163 43.481 36.0902C43.2278 37.8994 42.6581 38.5552 41.0122 38.8719C40.2948 39.0075 39.5563 39.0528 38.7333 39.0754C38.7333 37.5602 38.7333 36.045 38.7333 34.5524C38.7333 32.8563 38.7333 31.1828 38.7333 29.4866C38.7333 29.2605 38.7755 29.0117 38.8388 28.6951C39.0498 27.7905 39.5563 27.3382 40.5269 27.2477C40.5691 27.2477 40.5902 27.2477 40.6324 27.2477H40.6746C41.1177 27.2251 41.4131 27.0894 41.5819 26.8181C41.7507 26.5467 41.7718 26.1848 41.6452 25.7325C41.5397 25.3933 41.3076 25.3029 41.1599 25.2802C41.0544 25.2802 40.9278 25.2576 40.7801 25.2576H38.3324C37.7627 25.2576 36.159 25.2576 35.5893 25.2576H35.5682C34.9985 25.2576 34.4077 25.2576 33.838 25.2576H31.3903C31.2426 25.2576 31.1371 25.2576 31.0104 25.2802C30.8838 25.2802 30.6306 25.3933 30.5251 25.7325C30.3985 26.1848 30.4196 26.5467 30.5884 26.8181C30.7572 27.0894 31.0527 27.2251 31.4958 27.2477H31.538C31.5802 27.2477 31.6013 27.2477 31.6435 27.2477C32.6141 27.3382 33.1416 27.7905 33.3315 28.6951C33.3948 29.0117 33.437 29.2605 33.437 29.4866C33.437 31.1828 33.437 32.8563 33.437 34.5524C33.437 36.0676 33.437 37.5602 33.437 39.0754C32.6141 39.0528 31.8756 39.0075 31.1582 38.8719C29.5123 38.5552 28.9426 37.8994 28.6894 36.0902C28.5628 35.163 28.5628 34.2132 28.5417 33.286C28.5417 32.9693 28.5417 32.6301 28.5417 32.3135C28.5206 31.0697 28.4151 29.4414 27.782 27.9036C27.1068 26.2527 25.9885 25.3707 24.4692 25.2576C24.0261 25.235 23.6885 25.1898 23.4775 25.4385C23.2454 25.6647 23.2454 26.0039 23.2454 26.5014C23.2454 26.705 23.2454 27.2704 23.9206 27.3608C24.427 27.4287 24.7646 27.7453 24.9334 28.3559C25.0389 28.7177 25.0811 29.1022 25.0811 29.5092C25.0811 30.0746 25.0811 30.6626 25.0811 31.228C25.0811 32.0421 25.0811 32.8563 25.0811 33.6478C25.0811 34.5298 25.1655 35.4118 25.3343 36.3616C25.9463 39.5955 28.0563 41.6083 31.1371 41.9023C31.6857 41.9475 32.2343 41.9475 32.7407 41.9475C32.9728 41.9475 33.2049 41.9475 33.4159 41.9475C33.4159 41.9475 33.437 41.9475 33.4581 41.9475C33.4581 42.4903 33.4581 43.5079 33.4581 44.6387C33.4581 46.4931 33.4581 47.3073 33.4581 48.1892C33.437 49.2295 32.9517 49.7497 31.9389 49.7949C31.749 49.7949 31.5802 49.8175 31.3903 49.8401H31.2637C31.1793 49.8401 30.8838 49.8628 30.7783 50.1794C30.6517 50.5186 30.6306 50.903 30.7361 51.3327C30.8416 51.7398 31.1582 51.8077 31.3692 51.8077C31.5802 51.8077 31.4747 51.8077 31.4958 51.8077C31.5169 51.8077 31.5591 51.8077 31.5802 51.8077C32.9095 51.8077 34.2389 51.8077 35.5893 51.8077H35.6104C36.9398 51.8077 39.3031 51.8077 40.6324 51.8077C40.6535 51.8077 40.6746 51.8077 40.7168 51.8077C40.7379 51.8077 40.8012 51.8077 40.8434 51.8077C41.0544 51.8077 41.3709 51.7398 41.4764 51.3327C41.5819 50.903 41.5608 50.5186 41.4342 50.1794C41.3287 49.8854 41.0333 49.8628 40.9489 49.8628H40.8223C40.6324 49.8175 40.4636 49.8175 40.2737 49.7949C39.2609 49.7271 38.7755 49.2069 38.7544 48.1892C38.7544 47.3073 38.7544 46.4931 38.7544 44.6387C38.7544 43.5079 38.7544 42.4903 38.7544 41.9475C38.7544 41.9475 38.7755 41.9475 38.7966 41.9475C39.0287 41.9475 39.2609 41.9475 39.4719 41.9475C39.9994 41.9475 40.548 41.9475 41.0755 41.9023C44.1562 41.6083 46.2663 39.5955 46.8782 36.3616C47.047 35.4344 47.1314 34.5298 47.1314 33.6478C47.1314 32.8337 47.1314 32.0195 47.1314 31.228C47.1314 30.6626 47.1314 30.0746 47.1314 29.5092C47.1314 29.1022 47.1736 28.7177 47.2792 28.3559C47.448 27.7453 47.7856 27.4287 48.292 27.3608C48.9672 27.2704 48.9672 26.6824 48.9672 26.5014C48.9672 26.0265 48.9672 25.6873 48.7351 25.4385H48.6929Z" fill="url(#paint28_linear_2077_92)" style="mix-blend-mode:multiply"/>
<path d="M94.3338 154.706C94.587 154.706 94.7347 154.593 94.8191 154.322L95.4521 152.241C95.5365 151.947 95.4099 151.857 95.1989 151.857L95.2622 151.63H96.7604L96.676 151.857C96.5283 151.857 96.2539 151.857 96.1484 152.196L95.4943 154.322C95.431 154.548 95.4943 154.616 95.7264 154.616H95.9163C96.3383 154.616 96.6338 154.389 96.8026 153.801H97.0769L96.8448 154.593C96.7815 154.774 96.6971 154.887 96.465 154.887H94.2283L94.2916 154.661L94.3338 154.706Z" fill="#333391" style="fill:#333391;fill:color(display-p3 0.2000 0.2000 0.5686);fill-opacity:1;"/>
<path d="M97.4566 154.706C97.7098 154.706 97.8575 154.593 97.9419 154.322L98.5749 152.241C98.6593 151.947 98.5327 151.857 98.3217 151.857L98.385 151.63H99.8832L99.7988 151.857C99.6511 151.857 99.3768 151.857 99.2712 152.196L98.6171 154.322C98.5538 154.548 98.6171 154.616 98.8492 154.616H99.0391C99.4612 154.616 99.7566 154.389 99.9254 153.801H100.2L99.9676 154.593C99.9043 154.774 99.8199 154.887 99.5878 154.887H97.3511L97.4144 154.661L97.4566 154.706Z" fill="#333391" style="fill:#333391;fill:color(display-p3 0.2000 0.2000 0.5686);fill-opacity:1;"/>
<path d="M103.07 154.163C102.837 154.638 102.352 155 101.761 155C100.706 155 100.39 154.186 100.664 153.191C100.917 152.309 101.592 151.63 102.479 151.63C103.006 151.63 103.154 151.947 103.238 151.947C103.323 151.947 103.323 151.879 103.428 151.653H103.66L103.344 152.671H103.112C103.133 152.196 102.943 151.924 102.584 151.924C102.015 151.924 101.635 152.512 101.445 153.304C101.234 154.118 101.381 154.683 101.951 154.683C102.289 154.683 102.648 154.389 102.837 154.005L103.091 154.163H103.07Z" fill="#333391" style="fill:#333391;fill:color(display-p3 0.2000 0.2000 0.5686);fill-opacity:1;"/>
<path d="M26.7058 144.394V147.967C26.7058 148.826 26.959 149.143 27.993 149.143V149.753H23.7517V149.165C24.8701 149.165 25.0811 148.849 25.0811 147.989V139.916C25.0811 138.875 24.5957 138.762 23.7728 138.762V138.197H28.3095C30.6939 138.197 32.2553 139.079 32.2553 141.16C32.2553 143.104 30.6939 144.416 28.3095 144.416H26.7058V144.394ZM26.7058 138.762V143.828H27.6976C29.5544 143.828 30.5462 142.946 30.5462 141.114C30.5462 139.554 29.5544 138.762 27.9719 138.762H26.7058Z" fill="#333391" style="fill:#333391;fill:color(display-p3 0.2000 0.2000 0.5686);fill-opacity:1;"/>
<path d="M31.6646 148.17C31.6646 147.65 31.9811 147.175 32.5086 147.175C32.9728 147.175 33.2893 147.537 33.2893 147.967C33.2893 148.374 33.0361 148.668 32.6352 148.69C32.7829 149.007 33.3104 149.278 34.07 149.278C35.0829 149.278 35.7159 148.917 35.7159 148.215C35.7159 147.333 34.5765 147.085 33.5425 146.655C32.6563 146.316 31.8334 145.841 31.8334 144.71C31.8334 143.398 33.0994 142.675 34.4921 142.675C35.737 142.675 36.7709 143.218 36.7709 144.167C36.7709 144.62 36.4966 144.982 36.0324 144.982C35.6526 144.982 35.2939 144.71 35.2939 144.28C35.2939 143.986 35.4416 143.715 35.6737 143.602C35.5893 143.444 35.1884 143.218 34.4921 143.218C33.8168 143.218 33.0994 143.534 33.0994 144.19C33.0994 144.982 34.0067 145.253 34.9352 145.615C35.9691 146.022 37.003 146.452 37.003 147.65C37.003 149.097 35.7159 149.821 34.1122 149.821C32.6563 149.821 31.6646 149.03 31.6646 148.102V148.17Z" fill="#333391" style="fill:#333391;fill:color(display-p3 0.2000 0.2000 0.5686);fill-opacity:1;"/>
<path d="M39.113 142.811C39.8305 142.811 40.1259 143.218 40.1259 143.964V148.668C40.1259 149.188 40.569 149.188 41.0543 149.188V149.753H37.7204V149.233C38.269 149.233 38.691 149.233 38.691 148.668V144.167C38.691 143.466 38.269 143.353 37.636 143.353V142.833H39.0919L39.113 142.811ZM40.1259 140.255C40.1259 140.775 39.725 141.205 39.2185 141.205C38.7121 141.205 38.3323 140.798 38.3323 140.255C38.3323 139.78 38.7332 139.373 39.2185 139.373C39.725 139.373 40.1259 139.78 40.1259 140.255Z" fill="#333391" style="fill:#333391;fill:color(display-p3 0.2000 0.2000 0.5686);fill-opacity:1;"/>
<path d="M47.0891 147.854C46.8358 148.939 45.8019 149.979 44.4093 149.979C42.679 149.979 41.2441 148.736 41.2441 146.293C41.2441 143.919 43.101 142.697 44.6203 142.697C46.456 142.697 47.1524 143.987 47.1524 144.688C47.1524 145.389 46.7725 145.75 46.2872 145.75C45.8019 145.75 45.4221 145.343 45.4221 144.823C45.4221 144.416 45.6753 144.009 46.0762 143.964H46.0973C45.8441 143.534 45.3799 143.331 44.8735 143.331C43.8184 143.331 42.8267 144.303 42.8267 146.406C42.8267 148.623 43.8606 149.278 44.7469 149.278C45.5276 149.278 46.245 148.781 46.5826 147.718L47.068 147.876L47.0891 147.854Z" fill="#333391" style="fill:#333391;fill:color(display-p3 0.2000 0.2000 0.5686);fill-opacity:1;"/>
<path d="M54.3268 146.316C54.3268 148.645 52.7654 149.912 51.0562 149.912C49.3259 149.912 47.7223 148.69 47.7434 146.316C47.7434 143.964 49.3048 142.697 51.0351 142.697C52.7443 142.697 54.3057 143.987 54.3057 146.316H54.3268ZM49.3048 146.316C49.3048 148.102 49.959 149.391 51.0562 149.391C52.28 149.391 52.7443 148.125 52.7443 146.316C52.7443 144.461 52.2589 143.24 51.0773 143.24C49.9801 143.24 49.3048 144.484 49.3048 146.316Z" fill="#333391" style="fill:#333391;fill:color(display-p3 0.2000 0.2000 0.5686);fill-opacity:1;"/>
<path d="M59.855 149.097H57.9982C57.5128 149.097 57.2385 148.826 57.2385 148.261V143.738H58.3569C59.8128 143.738 59.7495 144.891 59.7495 145.479H60.3615V141.454H59.7495C59.7495 141.883 59.8339 143.127 58.3569 143.127H57.2385V138.853H60.2137C61.5642 138.853 62.0284 139.848 62.0284 141.318H62.577V138.83C62.577 138.378 62.4293 138.197 61.9651 138.197H54.3055V138.762C54.9385 138.762 55.6138 138.785 55.6138 139.938V147.808C55.6138 149.075 54.8752 149.188 54.2844 149.188V149.776H62.366C62.9779 149.776 63.1046 149.572 63.1046 148.962V146.474H62.5137C62.5137 148.261 62.1339 149.12 59.855 149.12V149.097Z" fill="url(#paint29_linear_2077_92)"/>
<path d="M70.2789 148.419V138.898C70.2789 137.948 70.0046 137.406 68.8441 137.406H67.7046V137.971C68.8652 137.971 68.8652 138.559 68.8652 139.463V143.76C68.612 143.24 67.9789 142.675 66.945 142.675C65.2358 142.675 63.9065 144.1 63.9065 146.361C63.9065 148.509 64.9615 149.844 66.5863 149.844C67.9156 149.844 68.6331 148.713 68.8652 148.17C68.8652 149.391 69.456 149.753 70.3422 149.753H71.2496V149.165C70.5321 149.165 70.2789 149.075 70.2789 148.419ZM67.0505 149.052C65.9955 149.052 65.5313 147.899 65.5313 146.293C65.5313 144.642 66.1854 143.444 67.1982 143.444C68.1056 143.444 68.8441 144.326 68.8441 146.044C68.8441 147.763 67.9789 149.052 67.0505 149.052Z" fill="url(#paint30_linear_2077_92)"/>
<path d="M78.044 148.329V144.213C78.044 143.082 77.6008 142.81 76.7146 142.81H75.6807V143.331C76.2293 143.331 76.6302 143.331 76.6302 144.213V146.203C76.6302 147.808 75.8706 149.188 74.8366 149.188C73.8449 149.188 73.5495 148.374 73.5495 147.266V144.077C73.5495 143.127 73.2963 142.81 72.389 142.81H71.1018V143.331C71.7559 143.331 72.0935 143.466 72.0935 144.077V147.333C72.0935 148.917 72.8532 149.934 74.3091 149.934C75.4697 149.934 76.2715 149.256 76.588 148.329C76.588 149.346 76.9256 149.753 78.0862 149.753H79.0146V149.188C78.255 149.188 78.0018 149.03 78.0018 148.306L78.044 148.329Z" fill="url(#paint31_linear_2077_92)"/>
<path d="M83.3613 144.823C83.3613 145.343 83.7411 145.75 84.2264 145.75C84.7118 145.75 85.0916 145.366 85.0916 144.688C85.0916 143.987 84.3741 142.697 82.5595 142.697C81.0613 142.697 79.1833 143.919 79.1833 146.293C79.1833 148.713 80.6182 149.979 82.3485 149.979C83.7411 149.979 84.7751 148.939 85.0283 147.854L84.543 147.695C84.2264 148.758 83.4879 149.256 82.7072 149.256C81.8209 149.256 80.787 148.6 80.787 146.384C80.787 144.28 81.7787 143.308 82.8338 143.308C83.3613 143.308 83.8255 143.512 84.0576 143.941H84.0365C83.6567 143.964 83.3824 144.394 83.3824 144.801L83.3613 144.823Z" fill="url(#paint32_linear_2077_92)"/>
<path d="M91.8228 149.188C91.5696 149.188 91.3797 148.984 91.3797 148.374V145.072C91.3797 143.24 90.0925 142.72 88.8265 142.72C87.6026 142.72 86.3366 143.421 86.3366 144.552C86.3366 144.959 86.6742 145.411 87.0962 145.411C87.5393 145.411 87.877 145.027 87.877 144.552C87.877 144.145 87.687 143.828 87.3283 143.783C87.6448 143.421 88.0458 143.263 88.5311 143.263C89.7971 143.263 89.9237 144.213 89.9237 145.389C88.1513 145.841 85.9568 146.361 85.8513 148.012C85.7669 149.572 86.9274 149.866 87.7715 149.866C88.8265 149.866 89.565 149.233 89.9659 148.555C90.0925 149.527 90.7045 149.866 91.443 149.866C92.3292 149.866 92.7301 149.346 92.9411 148.487L92.5191 148.283C92.3503 148.849 92.1182 149.165 91.8017 149.165L91.8228 149.188ZM89.6705 147.967C89.3962 148.577 88.9109 149.165 88.1724 149.165C87.5815 149.165 87.2439 148.826 87.2439 148.215C87.2439 146.904 88.8687 146.225 89.9448 145.886C89.9448 146.904 89.9237 147.492 89.6916 147.967H89.6705Z" fill="url(#paint33_linear_2077_92)"/>
<path d="M95.8742 149.097C95.3467 149.097 94.9668 148.736 94.9668 147.537V143.444H96.6971V142.81H94.9668V140.526H94.3971C94.3971 142.132 93.7008 142.969 92.2026 142.969V143.466H93.532V147.718C93.532 149.256 94.3338 149.912 95.4311 149.912C96.7604 149.912 97.309 149.12 97.5622 147.921L97.0769 147.763C96.8237 148.713 96.4439 149.12 95.8531 149.12L95.8742 149.097Z" fill="url(#paint34_linear_2077_92)"/>
<path d="M101.255 149.278C100.411 149.278 99.4611 148.396 99.4611 146.316H104.167C104.167 144.167 102.922 142.743 101.065 142.743C99.2712 142.743 97.8997 144.303 97.8997 146.452C97.8997 148.736 99.5244 149.889 101.107 149.889C102.331 149.889 103.555 149.075 103.934 147.786L103.386 147.582C102.964 148.826 101.993 149.256 101.255 149.256V149.278ZM101.023 143.24C102.078 143.24 102.542 144.439 102.563 145.796H99.4611C99.5244 144.1 100.284 143.24 101.023 143.24Z" fill="url(#paint35_linear_2077_92)"/>
<path d="M73.7816 142.087L73.4651 141.748C74.077 140.979 74.8366 139.599 75.3009 139.034C75.5963 138.695 76.0394 138.627 76.3559 138.921C76.6513 139.215 76.6302 139.667 76.3137 139.984C75.8284 140.504 74.5201 141.386 73.8027 142.087H73.7816Z" fill="url(#paint36_linear_2077_92)"/>
<path d="M9.02341 148.623C8.8546 148.623 8.6647 149.052 8.58029 149.776H8.03167V139.735C8.03167 138.966 7.69406 138.74 6.91333 138.74V138.22H7.96837C8.7702 138.22 9.42432 138.333 9.42432 139.667V144.733C9.67753 144.19 10.4372 143.172 11.7243 143.172C13.0115 143.172 14.2353 144.416 14.2353 146.406C14.2353 148.396 12.9482 149.866 11.2812 149.866C9.61423 149.866 9.27662 148.623 9.00231 148.623H9.02341ZM9.46652 146.746C9.46652 148.329 10.1629 149.165 11.0491 149.165C11.9353 149.165 12.6949 148.035 12.6949 146.497C12.6949 144.959 12.2096 143.896 11.2179 143.896C10.2262 143.896 9.46652 145.117 9.46652 146.746Z" fill="#333391" style="fill:#333391;fill:color(display-p3 0.2000 0.2000 0.5686);fill-opacity:1;"/>
<path d="M18.1178 150.884C17.5692 152.173 17.0628 153.349 15.7967 153.349C14.5307 153.349 14.4463 152.784 14.4463 152.241C14.4463 151.698 14.7839 151.336 15.1848 151.336C15.5857 151.336 15.9655 151.676 15.9655 152.105C15.9655 152.535 15.7967 152.625 15.6068 152.761C15.6279 152.784 15.7756 152.829 15.8811 152.829C16.3665 152.829 16.8307 152.264 17.1683 151.449L17.8224 149.934L15.649 144.461C15.4591 143.964 15.227 143.828 14.7206 143.783V143.263H15.8178C16.8729 143.263 16.9784 143.534 17.1894 144.1L18.6242 147.944L20.1224 144.371C20.3334 143.851 19.9536 143.806 19.3839 143.806V143.263H21.6839V143.783C21.2407 143.783 20.9453 143.919 20.7343 144.416L18.0756 150.884H18.1178Z" fill="#333391" style="fill:#333391;fill:color(display-p3 0.2000 0.2000 0.5686);fill-opacity:1;"/>
<path d="M135.058 130.915C134.847 130.915 134.678 131.073 134.678 131.299C134.678 131.526 134.847 131.707 135.058 131.707C135.269 131.707 135.438 131.526 135.438 131.299C135.438 131.073 135.269 130.915 135.058 130.915Z" fill="url(#paint37_linear_2077_92)"/>
<path d="M138.118 130.915C137.907 130.915 137.738 131.073 137.738 131.299C137.738 131.526 137.907 131.707 138.118 131.707C138.329 131.707 138.498 131.526 138.498 131.299C138.498 131.073 138.329 130.915 138.118 130.915Z" fill="url(#paint38_linear_2077_92)"/>
<path d="M141.262 130.915C141.051 130.915 140.882 131.073 140.882 131.299C140.882 131.526 141.051 131.707 141.262 131.707C141.473 131.707 141.642 131.526 141.642 131.299C141.642 131.073 141.473 130.915 141.262 130.915Z" fill="url(#paint39_linear_2077_92)"/>
<path d="M175.888 131.729C176.099 131.729 176.268 131.571 176.268 131.345C176.268 131.119 176.099 130.938 175.888 130.938C175.677 130.938 175.509 131.119 175.509 131.345C175.509 131.571 175.677 131.729 175.888 131.729Z" fill="url(#paint40_linear_2077_92)"/>
<path d="M172.829 131.729C173.04 131.729 173.209 131.571 173.209 131.345C173.209 131.119 173.04 130.938 172.829 130.938C172.618 130.938 172.449 131.119 172.449 131.345C172.449 131.571 172.618 131.729 172.829 131.729Z" fill="url(#paint41_linear_2077_92)"/>
<path d="M169.685 131.729C169.896 131.729 170.065 131.571 170.065 131.345C170.065 131.119 169.896 130.938 169.685 130.938C169.474 130.938 169.305 131.119 169.305 131.345C169.305 131.571 169.474 131.729 169.685 131.729Z" fill="url(#paint42_linear_2077_92)"/>
<path d="M152.762 132.656C152.762 132.43 152.931 132.272 153.142 132.272C153.353 132.272 153.522 132.43 153.522 132.656C153.522 132.883 153.353 133.041 153.142 133.041C152.931 133.041 152.762 132.883 152.762 132.656Z" fill="url(#paint43_linear_2077_92)"/>
<path d="M158.396 132.272V133.041H155.779V132.43L157.045 131.209C157.32 130.96 157.362 130.802 157.362 130.644C157.362 130.417 157.214 130.282 156.94 130.282C156.665 130.282 156.476 130.395 156.349 130.621L155.653 130.214C155.906 129.784 156.391 129.49 157.045 129.49C157.699 129.49 158.353 129.897 158.353 130.553C158.353 131.209 158.269 131.209 157.784 131.661L157.151 132.272H158.438H158.396Z" fill="url(#paint44_linear_2077_92)"/>
<path d="M158.944 131.322C158.944 130.169 159.577 129.513 160.421 129.513C161.265 129.513 161.898 130.169 161.898 131.322C161.898 132.475 161.265 133.131 160.421 133.131C159.577 133.131 158.944 132.475 158.944 131.322ZM160.949 131.322C160.949 130.598 160.738 130.327 160.421 130.327C160.105 130.327 159.894 130.598 159.894 131.322C159.894 132.046 160.105 132.317 160.421 132.317C160.738 132.317 160.949 132.046 160.949 131.322Z" fill="url(#paint45_linear_2077_92)"/>
<path d="M163.924 129.581V133.041H162.975V130.327H162.342V129.558H163.924V129.581Z" fill="url(#paint46_linear_2077_92)"/>
<path d="M167.596 131.933C167.596 132.656 167.005 133.109 166.266 133.109C165.528 133.109 164.705 132.521 164.705 131.39C164.705 130.259 165.422 129.49 166.498 129.49C167.575 129.49 167.237 129.581 167.49 129.739L167.153 130.44C166.963 130.304 166.752 130.259 166.541 130.259C166.055 130.259 165.739 130.531 165.697 131.073C165.886 130.915 166.14 130.825 166.456 130.825C167.089 130.825 167.617 131.254 167.617 131.91L167.596 131.933ZM166.667 131.978C166.667 131.707 166.477 131.548 166.203 131.548C165.929 131.548 165.739 131.729 165.739 131.978C165.739 132.227 165.929 132.408 166.203 132.408C166.477 132.408 166.667 132.249 166.667 131.955V131.978Z" fill="url(#paint47_linear_2077_92)"/>
<path d="M146.052 132.295V133.041H143.372V129.581H145.989V130.327H144.301V130.915H145.799V131.639H144.301V132.272H146.052V132.295Z" fill="url(#paint48_linear_2077_92)"/>
<path d="M146.622 132.747L146.938 132.023C147.234 132.227 147.656 132.362 148.035 132.362C148.415 132.362 148.584 132.249 148.584 132.091C148.584 131.548 146.685 131.933 146.685 130.666C146.685 129.4 147.17 129.535 148.162 129.535C149.154 129.535 149.048 129.649 149.386 129.829L149.09 130.553C148.774 130.372 148.457 130.282 148.162 130.282C147.867 130.282 147.613 130.417 147.613 130.598C147.613 131.119 149.512 130.734 149.512 132.001C149.512 133.267 149.027 133.109 148.035 133.109C147.044 133.109 146.938 132.95 146.622 132.724V132.747Z" fill="url(#paint49_linear_2077_92)"/>
<path d="M150.905 130.372H149.871V129.603H152.867V130.372H151.833V133.063H150.884V130.372H150.905Z" fill="url(#paint50_linear_2077_92)"/>
</g>
<defs>
<linearGradient id="paint0_linear_2077_92" x1="26.305" y1="185.327" x2="161.318" y2="-49.8075" gradientUnits="userSpaceOnUse">
<stop stop-color="#00A8DE" style="stop-color:#00A8DE;stop-color:color(display-p3 0.0000 0.6588 0.8706);stop-opacity:1;"/>
<stop offset="0.2" stop-color="#333391" style="stop-color:#333391;stop-color:color(display-p3 0.2000 0.2000 0.5686);stop-opacity:1;"/>
<stop offset="0.4" stop-color="#3364AA" style="stop-color:#3364AA;stop-color:color(display-p3 0.2000 0.3922 0.6667);stop-opacity:1;"/>
<stop offset="0.6" stop-color="#1EA547" style="stop-color:#1EA547;stop-color:color(display-p3 0.1176 0.6471 0.2784);stop-opacity:1;"/>
<stop offset="0.8" stop-color="#FDE92B" style="stop-color:#FDE92B;stop-color:color(display-p3 0.9922 0.9137 0.1686);stop-opacity:1;"/>
<stop offset="1" stop-color="#009E54" style="stop-color:#009E54;stop-color:color(display-p3 0.0000 0.6196 0.3294);stop-opacity:1;"/>
</linearGradient>
<linearGradient id="paint1_linear_2077_92" x1="43.6075" y1="195.255" x2="178.62" y2="-39.8795" gradientUnits="userSpaceOnUse">
<stop stop-color="#00A8DE" style="stop-color:#00A8DE;stop-color:color(display-p3 0.0000 0.6588 0.8706);stop-opacity:1;"/>
<stop offset="0.2" stop-color="#333391" style="stop-color:#333391;stop-color:color(display-p3 0.2000 0.2000 0.5686);stop-opacity:1;"/>
<stop offset="0.4" stop-color="#3364AA" style="stop-color:#3364AA;stop-color:color(display-p3 0.2000 0.3922 0.6667);stop-opacity:1;"/>
<stop offset="0.6" stop-color="#1EA547" style="stop-color:#1EA547;stop-color:color(display-p3 0.1176 0.6471 0.2784);stop-opacity:1;"/>
<stop offset="0.8" stop-color="#FDE92B" style="stop-color:#FDE92B;stop-color:color(display-p3 0.9922 0.9137 0.1686);stop-opacity:1;"/>
<stop offset="1" stop-color="#009E54" style="stop-color:#009E54;stop-color:color(display-p3 0.0000 0.6196 0.3294);stop-opacity:1;"/>
</linearGradient>
<linearGradient id="paint2_linear_2077_92" x1="64.7296" y1="207.376" x2="199.72" y2="-27.7599" gradientUnits="userSpaceOnUse">
<stop stop-color="#00A8DE" style="stop-color:#00A8DE;stop-color:color(display-p3 0.0000 0.6588 0.8706);stop-opacity:1;"/>
<stop offset="0.2" stop-color="#333391" style="stop-color:#333391;stop-color:color(display-p3 0.2000 0.2000 0.5686);stop-opacity:1;"/>
<stop offset="0.4" stop-color="#3364AA" style="stop-color:#3364AA;stop-color:color(display-p3 0.2000 0.3922 0.6667);stop-opacity:1;"/>
<stop offset="0.6" stop-color="#1EA547" style="stop-color:#1EA547;stop-color:color(display-p3 0.1176 0.6471 0.2784);stop-opacity:1;"/>
<stop offset="0.8" stop-color="#FDE92B" style="stop-color:#FDE92B;stop-color:color(display-p3 0.9922 0.9137 0.1686);stop-opacity:1;"/>
<stop offset="1" stop-color="#009E54" style="stop-color:#009E54;stop-color:color(display-p3 0.0000 0.6196 0.3294);stop-opacity:1;"/>
</linearGradient>
<linearGradient id="paint3_linear_2077_92" x1="79.0358" y1="215.608" x2="214.048" y2="-19.526" gradientUnits="userSpaceOnUse">
<stop stop-color="#00A8DE" style="stop-color:#00A8DE;stop-color:color(display-p3 0.0000 0.6588 0.8706);stop-opacity:1;"/>
<stop offset="0.2" stop-color="#333391" style="stop-color:#333391;stop-color:color(display-p3 0.2000 0.2000 0.5686);stop-opacity:1;"/>
<stop offset="0.4" stop-color="#3364AA" style="stop-color:#3364AA;stop-color:color(display-p3 0.2000 0.3922 0.6667);stop-opacity:1;"/>
<stop offset="0.6" stop-color="#1EA547" style="stop-color:#1EA547;stop-color:color(display-p3 0.1176 0.6471 0.2784);stop-opacity:1;"/>
<stop offset="0.8" stop-color="#FDE92B" style="stop-color:#FDE92B;stop-color:color(display-p3 0.9922 0.9137 0.1686);stop-opacity:1;"/>
<stop offset="1" stop-color="#009E54" style="stop-color:#009E54;stop-color:color(display-p3 0.0000 0.6196 0.3294);stop-opacity:1;"/>
</linearGradient>
<linearGradient id="paint4_linear_2077_92" x1="94.1018" y1="224.247" x2="229.114" y2="-10.8871" gradientUnits="userSpaceOnUse">
<stop stop-color="#00A8DE" style="stop-color:#00A8DE;stop-color:color(display-p3 0.0000 0.6588 0.8706);stop-opacity:1;"/>
<stop offset="0.2" stop-color="#333391" style="stop-color:#333391;stop-color:color(display-p3 0.2000 0.2000 0.5686);stop-opacity:1;"/>
<stop offset="0.4" stop-color="#3364AA" style="stop-color:#3364AA;stop-color:color(display-p3 0.2000 0.3922 0.6667);stop-opacity:1;"/>
<stop offset="0.6" stop-color="#1EA547" style="stop-color:#1EA547;stop-color:color(display-p3 0.1176 0.6471 0.2784);stop-opacity:1;"/>
<stop offset="0.8" stop-color="#FDE92B" style="stop-color:#FDE92B;stop-color:color(display-p3 0.9922 0.9137 0.1686);stop-opacity:1;"/>
<stop offset="1" stop-color="#009E54" style="stop-color:#009E54;stop-color:color(display-p3 0.0000 0.6196 0.3294);stop-opacity:1;"/>
</linearGradient>
<linearGradient id="paint5_linear_2077_92" x1="37.404" y1="197.448" x2="179.549" y2="-50.1196" gradientUnits="userSpaceOnUse">
<stop stop-color="#00A8DE" style="stop-color:#00A8DE;stop-color:color(display-p3 0.0000 0.6588 0.8706);stop-opacity:1;"/>
<stop offset="0.2" stop-color="#333391" style="stop-color:#333391;stop-color:color(display-p3 0.2000 0.2000 0.5686);stop-opacity:1;"/>
<stop offset="0.4" stop-color="#3364AA" style="stop-color:#3364AA;stop-color:color(display-p3 0.2000 0.3922 0.6667);stop-opacity:1;"/>
<stop offset="0.6" stop-color="#1EA547" style="stop-color:#1EA547;stop-color:color(display-p3 0.1176 0.6471 0.2784);stop-opacity:1;"/>
<stop offset="0.8" stop-color="#FDE92B" style="stop-color:#FDE92B;stop-color:color(display-p3 0.9922 0.9137 0.1686);stop-opacity:1;"/>
<stop offset="1" stop-color="#009E54" style="stop-color:#009E54;stop-color:color(display-p3 0.0000 0.6196 0.3294);stop-opacity:1;"/>
</linearGradient>
<linearGradient id="paint6_linear_2077_92" x1="50.803" y1="205.16" x2="192.971" y2="-42.4288" gradientUnits="userSpaceOnUse">
<stop stop-color="#00A8DE" style="stop-color:#00A8DE;stop-color:color(display-p3 0.0000 0.6588 0.8706);stop-opacity:1;"/>
<stop offset="0.2" stop-color="#333391" style="stop-color:#333391;stop-color:color(display-p3 0.2000 0.2000 0.5686);stop-opacity:1;"/>
<stop offset="0.4" stop-color="#3364AA" style="stop-color:#3364AA;stop-color:color(display-p3 0.2000 0.3922 0.6667);stop-opacity:1;"/>
<stop offset="0.6" stop-color="#1EA547" style="stop-color:#1EA547;stop-color:color(display-p3 0.1176 0.6471 0.2784);stop-opacity:1;"/>
<stop offset="0.8" stop-color="#FDE92B" style="stop-color:#FDE92B;stop-color:color(display-p3 0.9922 0.9137 0.1686);stop-opacity:1;"/>
<stop offset="1" stop-color="#009E54" style="stop-color:#009E54;stop-color:color(display-p3 0.0000 0.6196 0.3294);stop-opacity:1;"/>
</linearGradient>
<linearGradient id="paint7_linear_2077_92" x1="65.5523" y1="213.618" x2="207.697" y2="-33.9499" gradientUnits="userSpaceOnUse">
<stop stop-color="#00A8DE" style="stop-color:#00A8DE;stop-color:color(display-p3 0.0000 0.6588 0.8706);stop-opacity:1;"/>
<stop offset="0.2" stop-color="#333391" style="stop-color:#333391;stop-color:color(display-p3 0.2000 0.2000 0.5686);stop-opacity:1;"/>
<stop offset="0.4" stop-color="#3364AA" style="stop-color:#3364AA;stop-color:color(display-p3 0.2000 0.3922 0.6667);stop-opacity:1;"/>
<stop offset="0.6" stop-color="#1EA547" style="stop-color:#1EA547;stop-color:color(display-p3 0.1176 0.6471 0.2784);stop-opacity:1;"/>
<stop offset="0.8" stop-color="#FDE92B" style="stop-color:#FDE92B;stop-color:color(display-p3 0.9922 0.9137 0.1686);stop-opacity:1;"/>
<stop offset="1" stop-color="#009E54" style="stop-color:#009E54;stop-color:color(display-p3 0.0000 0.6196 0.3294);stop-opacity:1;"/>
</linearGradient>
<linearGradient id="paint8_linear_2077_92" x1="72.6422" y1="217.689" x2="214.788" y2="-29.9021" gradientUnits="userSpaceOnUse">
<stop stop-color="#00A8DE" style="stop-color:#00A8DE;stop-color:color(display-p3 0.0000 0.6588 0.8706);stop-opacity:1;"/>
<stop offset="0.2" stop-color="#333391" style="stop-color:#333391;stop-color:color(display-p3 0.2000 0.2000 0.5686);stop-opacity:1;"/>
<stop offset="0.4" stop-color="#3364AA" style="stop-color:#3364AA;stop-color:color(display-p3 0.2000 0.3922 0.6667);stop-opacity:1;"/>
<stop offset="0.6" stop-color="#1EA547" style="stop-color:#1EA547;stop-color:color(display-p3 0.1176 0.6471 0.2784);stop-opacity:1;"/>
<stop offset="0.8" stop-color="#FDE92B" style="stop-color:#FDE92B;stop-color:color(display-p3 0.9922 0.9137 0.1686);stop-opacity:1;"/>
<stop offset="1" stop-color="#009E54" style="stop-color:#009E54;stop-color:color(display-p3 0.0000 0.6196 0.3294);stop-opacity:1;"/>
</linearGradient>
<linearGradient id="paint9_linear_2077_92" x1="83.3825" y1="223.863" x2="225.55" y2="-23.7261" gradientUnits="userSpaceOnUse">
<stop stop-color="#00A8DE" style="stop-color:#00A8DE;stop-color:color(display-p3 0.0000 0.6588 0.8706);stop-opacity:1;"/>
<stop offset="0.2" stop-color="#333391" style="stop-color:#333391;stop-color:color(display-p3 0.2000 0.2000 0.5686);stop-opacity:1;"/>
<stop offset="0.4" stop-color="#3364AA" style="stop-color:#3364AA;stop-color:color(display-p3 0.2000 0.3922 0.6667);stop-opacity:1;"/>
<stop offset="0.6" stop-color="#1EA547" style="stop-color:#1EA547;stop-color:color(display-p3 0.1176 0.6471 0.2784);stop-opacity:1;"/>
<stop offset="0.8" stop-color="#FDE92B" style="stop-color:#FDE92B;stop-color:color(display-p3 0.9922 0.9137 0.1686);stop-opacity:1;"/>
<stop offset="1" stop-color="#009E54" style="stop-color:#009E54;stop-color:color(display-p3 0.0000 0.6196 0.3294);stop-opacity:1;"/>
</linearGradient>
<linearGradient id="paint10_linear_2077_92" x1="84.8385" y1="224.7" x2="227.006" y2="-22.8895" gradientUnits="userSpaceOnUse">
<stop stop-color="#00A8DE" style="stop-color:#00A8DE;stop-color:color(display-p3 0.0000 0.6588 0.8706);stop-opacity:1;"/>
<stop offset="0.2" stop-color="#333391" style="stop-color:#333391;stop-color:color(display-p3 0.2000 0.2000 0.5686);stop-opacity:1;"/>
<stop offset="0.4" stop-color="#3364AA" style="stop-color:#3364AA;stop-color:color(display-p3 0.2000 0.3922 0.6667);stop-opacity:1;"/>
<stop offset="0.6" stop-color="#1EA547" style="stop-color:#1EA547;stop-color:color(display-p3 0.1176 0.6471 0.2784);stop-opacity:1;"/>
<stop offset="0.8" stop-color="#FDE92B" style="stop-color:#FDE92B;stop-color:color(display-p3 0.9922 0.9137 0.1686);stop-opacity:1;"/>
<stop offset="1" stop-color="#009E54" style="stop-color:#009E54;stop-color:color(display-p3 0.0000 0.6196 0.3294);stop-opacity:1;"/>
</linearGradient>
<linearGradient id="paint11_linear_2077_92" x1="91.5485" y1="228.544" x2="233.694" y2="-19.0471" gradientUnits="userSpaceOnUse">
<stop stop-color="#00A8DE" style="stop-color:#00A8DE;stop-color:color(display-p3 0.0000 0.6588 0.8706);stop-opacity:1;"/>
<stop offset="0.2" stop-color="#333391" style="stop-color:#333391;stop-color:color(display-p3 0.2000 0.2000 0.5686);stop-opacity:1;"/>
<stop offset="0.4" stop-color="#3364AA" style="stop-color:#3364AA;stop-color:color(display-p3 0.2000 0.3922 0.6667);stop-opacity:1;"/>
<stop offset="0.6" stop-color="#1EA547" style="stop-color:#1EA547;stop-color:color(display-p3 0.1176 0.6471 0.2784);stop-opacity:1;"/>
<stop offset="0.8" stop-color="#FDE92B" style="stop-color:#FDE92B;stop-color:color(display-p3 0.9922 0.9137 0.1686);stop-opacity:1;"/>
<stop offset="1" stop-color="#009E54" style="stop-color:#009E54;stop-color:color(display-p3 0.0000 0.6196 0.3294);stop-opacity:1;"/>
</linearGradient>
<linearGradient id="paint12_linear_2077_92" x1="105.876" y1="236.776" x2="248.044" y2="-10.813" gradientUnits="userSpaceOnUse">
<stop stop-color="#00A8DE" style="stop-color:#00A8DE;stop-color:color(display-p3 0.0000 0.6588 0.8706);stop-opacity:1;"/>
<stop offset="0.2" stop-color="#333391" style="stop-color:#333391;stop-color:color(display-p3 0.2000 0.2000 0.5686);stop-opacity:1;"/>
<stop offset="0.4" stop-color="#3364AA" style="stop-color:#3364AA;stop-color:color(display-p3 0.2000 0.3922 0.6667);stop-opacity:1;"/>
<stop offset="0.6" stop-color="#1EA547" style="stop-color:#1EA547;stop-color:color(display-p3 0.1176 0.6471 0.2784);stop-opacity:1;"/>
<stop offset="0.8" stop-color="#FDE92B" style="stop-color:#FDE92B;stop-color:color(display-p3 0.9922 0.9137 0.1686);stop-opacity:1;"/>
<stop offset="1" stop-color="#009E54" style="stop-color:#009E54;stop-color:color(display-p3 0.0000 0.6196 0.3294);stop-opacity:1;"/>
</linearGradient>
<linearGradient id="paint13_linear_2077_92" x1="125.88" y1="248.264" x2="268.025" y2="0.673393" gradientUnits="userSpaceOnUse">
<stop stop-color="#00A8DE" style="stop-color:#00A8DE;stop-color:color(display-p3 0.0000 0.6588 0.8706);stop-opacity:1;"/>
<stop offset="0.2" stop-color="#333391" style="stop-color:#333391;stop-color:color(display-p3 0.2000 0.2000 0.5686);stop-opacity:1;"/>
<stop offset="0.4" stop-color="#3364AA" style="stop-color:#3364AA;stop-color:color(display-p3 0.2000 0.3922 0.6667);stop-opacity:1;"/>
<stop offset="0.6" stop-color="#1EA547" style="stop-color:#1EA547;stop-color:color(display-p3 0.1176 0.6471 0.2784);stop-opacity:1;"/>
<stop offset="0.8" stop-color="#FDE92B" style="stop-color:#FDE92B;stop-color:color(display-p3 0.9922 0.9137 0.1686);stop-opacity:1;"/>
<stop offset="1" stop-color="#009E54" style="stop-color:#009E54;stop-color:color(display-p3 0.0000 0.6196 0.3294);stop-opacity:1;"/>
</linearGradient>
<linearGradient id="paint14_linear_2077_92" x1="-15.8755" y1="148.283" x2="92.3347" y2="18.6031" gradientUnits="userSpaceOnUse">
<stop stop-color="#00A8DE" style="stop-color:#00A8DE;stop-color:color(display-p3 0.0000 0.6588 0.8706);stop-opacity:1;"/>
<stop offset="0.2" stop-color="#333391" style="stop-color:#333391;stop-color:color(display-p3 0.2000 0.2000 0.5686);stop-opacity:1;"/>
<stop offset="0.4" stop-color="#3364AA" style="stop-color:#3364AA;stop-color:color(display-p3 0.2000 0.3922 0.6667);stop-opacity:1;"/>
<stop offset="0.6" stop-color="#1EA547" style="stop-color:#1EA547;stop-color:color(display-p3 0.1176 0.6471 0.2784);stop-opacity:1;"/>
<stop offset="0.8" stop-color="#FDE92B" style="stop-color:#FDE92B;stop-color:color(display-p3 0.9922 0.9137 0.1686);stop-opacity:1;"/>
<stop offset="1" stop-color="#009E54" style="stop-color:#009E54;stop-color:color(display-p3 0.0000 0.6196 0.3294);stop-opacity:1;"/>
</linearGradient>
<linearGradient id="paint15_linear_2077_92" x1="14.9528" y1="173.59" x2="122.771" y2="44.4035" gradientUnits="userSpaceOnUse">
<stop stop-color="#00A8DE" style="stop-color:#00A8DE;stop-color:color(display-p3 0.0000 0.6588 0.8706);stop-opacity:1;"/>
<stop offset="0.2" stop-color="#333391" style="stop-color:#333391;stop-color:color(display-p3 0.2000 0.2000 0.5686);stop-opacity:1;"/>
<stop offset="0.4" stop-color="#3364AA" style="stop-color:#3364AA;stop-color:color(display-p3 0.2000 0.3922 0.6667);stop-opacity:1;"/>
<stop offset="0.6" stop-color="#1EA547" style="stop-color:#1EA547;stop-color:color(display-p3 0.1176 0.6471 0.2784);stop-opacity:1;"/>
<stop offset="0.8" stop-color="#FDE92B" style="stop-color:#FDE92B;stop-color:color(display-p3 0.9922 0.9137 0.1686);stop-opacity:1;"/>
<stop offset="1" stop-color="#009E54" style="stop-color:#009E54;stop-color:color(display-p3 0.0000 0.6196 0.3294);stop-opacity:1;"/>
</linearGradient>
<linearGradient id="paint16_linear_2077_92" x1="-49.7423" y1="88.3988" x2="104.47" y2="-1.45128" gradientUnits="userSpaceOnUse">
<stop stop-color="#00A8DE" style="stop-color:#00A8DE;stop-color:color(display-p3 0.0000 0.6588 0.8706);stop-opacity:1;"/>
<stop offset="0.2" stop-color="#333391" style="stop-color:#333391;stop-color:color(display-p3 0.2000 0.2000 0.5686);stop-opacity:1;"/>
<stop offset="0.4" stop-color="#3364AA" style="stop-color:#3364AA;stop-color:color(display-p3 0.2000 0.3922 0.6667);stop-opacity:1;"/>
<stop offset="0.6" stop-color="#1EA547" style="stop-color:#1EA547;stop-color:color(display-p3 0.1176 0.6471 0.2784);stop-opacity:1;"/>
<stop offset="0.8" stop-color="#FDE92B" style="stop-color:#FDE92B;stop-color:color(display-p3 0.9922 0.9137 0.1686);stop-opacity:1;"/>
<stop offset="1" stop-color="#009E54" style="stop-color:#009E54;stop-color:color(display-p3 0.0000 0.6196 0.3294);stop-opacity:1;"/>
</linearGradient>
<linearGradient id="paint17_linear_2077_92" x1="111.003" y1="111.828" x2="108.703" y2="140.276" gradientUnits="userSpaceOnUse">
<stop stop-color="#00A8DE" style="stop-color:#00A8DE;stop-color:color(display-p3 0.0000 0.6588 0.8706);stop-opacity:1;"/>
<stop offset="0.3" stop-color="#333391" style="stop-color:#333391;stop-color:color(display-p3 0.2000 0.2000 0.5686);stop-opacity:1;"/>
<stop offset="0.6" stop-color="#3364AA" style="stop-color:#3364AA;stop-color:color(display-p3 0.2000 0.3922 0.6667);stop-opacity:1;"/>
</linearGradient>
<linearGradient id="paint18_linear_2077_92" x1="121.216" y1="112.665" x2="118.916" y2="141.113" gradientUnits="userSpaceOnUse">
<stop stop-color="#00A8DE" style="stop-color:#00A8DE;stop-color:color(display-p3 0.0000 0.6588 0.8706);stop-opacity:1;"/>
<stop offset="0.3" stop-color="#333391" style="stop-color:#333391;stop-color:color(display-p3 0.2000 0.2000 0.5686);stop-opacity:1;"/>
<stop offset="0.6" stop-color="#3364AA" style="stop-color:#3364AA;stop-color:color(display-p3 0.2000 0.3922 0.6667);stop-opacity:1;"/>
</linearGradient>
<linearGradient id="paint19_linear_2077_92" x1="128.601" y1="113.253" x2="126.277" y2="141.723" gradientUnits="userSpaceOnUse">
<stop stop-color="#00A8DE" style="stop-color:#00A8DE;stop-color:color(display-p3 0.0000 0.6588 0.8706);stop-opacity:1;"/>
<stop offset="0.3" stop-color="#333391" style="stop-color:#333391;stop-color:color(display-p3 0.2000 0.2000 0.5686);stop-opacity:1;"/>
<stop offset="0.6" stop-color="#3364AA" style="stop-color:#3364AA;stop-color:color(display-p3 0.2000 0.3922 0.6667);stop-opacity:1;"/>
</linearGradient>
<linearGradient id="paint20_linear_2077_92" x1="136.894" y1="113.931" x2="134.569" y2="142.379" gradientUnits="userSpaceOnUse">
<stop stop-color="#00A8DE" style="stop-color:#00A8DE;stop-color:color(display-p3 0.0000 0.6588 0.8706);stop-opacity:1;"/>
<stop offset="0.3" stop-color="#333391" style="stop-color:#333391;stop-color:color(display-p3 0.2000 0.2000 0.5686);stop-opacity:1;"/>
<stop offset="0.6" stop-color="#3364AA" style="stop-color:#3364AA;stop-color:color(display-p3 0.2000 0.3922 0.6667);stop-opacity:1;"/>
</linearGradient>
<linearGradient id="paint21_linear_2077_92" x1="147.972" y1="114.836" x2="145.647" y2="143.284" gradientUnits="userSpaceOnUse">
<stop stop-color="#00A8DE" style="stop-color:#00A8DE;stop-color:color(display-p3 0.0000 0.6588 0.8706);stop-opacity:1;"/>
<stop offset="0.3" stop-color="#333391" style="stop-color:#333391;stop-color:color(display-p3 0.2000 0.2000 0.5686);stop-opacity:1;"/>
<stop offset="0.6" stop-color="#3364AA" style="stop-color:#3364AA;stop-color:color(display-p3 0.2000 0.3922 0.6667);stop-opacity:1;"/>
</linearGradient>
<linearGradient id="paint22_linear_2077_92" x1="159.029" y1="115.74" x2="156.704" y2="144.188" gradientUnits="userSpaceOnUse">
<stop stop-color="#00A8DE" style="stop-color:#00A8DE;stop-color:color(display-p3 0.0000 0.6588 0.8706);stop-opacity:1;"/>
<stop offset="0.3" stop-color="#333391" style="stop-color:#333391;stop-color:color(display-p3 0.2000 0.2000 0.5686);stop-opacity:1;"/>
<stop offset="0.6" stop-color="#3364AA" style="stop-color:#3364AA;stop-color:color(display-p3 0.2000 0.3922 0.6667);stop-opacity:1;"/>
</linearGradient>
<linearGradient id="paint23_linear_2077_92" x1="169.094" y1="116.554" x2="166.769" y2="145.002" gradientUnits="userSpaceOnUse">
<stop stop-color="#00A8DE" style="stop-color:#00A8DE;stop-color:color(display-p3 0.0000 0.6588 0.8706);stop-opacity:1;"/>
<stop offset="0.3" stop-color="#333391" style="stop-color:#333391;stop-color:color(display-p3 0.2000 0.2000 0.5686);stop-opacity:1;"/>
<stop offset="0.6" stop-color="#3364AA" style="stop-color:#3364AA;stop-color:color(display-p3 0.2000 0.3922 0.6667);stop-opacity:1;"/>
</linearGradient>
<linearGradient id="paint24_linear_2077_92" x1="180.784" y1="117.504" x2="178.459" y2="145.952" gradientUnits="userSpaceOnUse">
<stop stop-color="#00A8DE" style="stop-color:#00A8DE;stop-color:color(display-p3 0.0000 0.6588 0.8706);stop-opacity:1;"/>
<stop offset="0.3" stop-color="#333391" style="stop-color:#333391;stop-color:color(display-p3 0.2000 0.2000 0.5686);stop-opacity:1;"/>
<stop offset="0.6" stop-color="#3364AA" style="stop-color:#3364AA;stop-color:color(display-p3 0.2000 0.3922 0.6667);stop-opacity:1;"/>
</linearGradient>
<linearGradient id="paint25_linear_2077_92" x1="189.477" y1="118.205" x2="187.152" y2="146.676" gradientUnits="userSpaceOnUse">
<stop stop-color="#00A8DE" style="stop-color:#00A8DE;stop-color:color(display-p3 0.0000 0.6588 0.8706);stop-opacity:1;"/>
<stop offset="0.3" stop-color="#333391" style="stop-color:#333391;stop-color:color(display-p3 0.2000 0.2000 0.5686);stop-opacity:1;"/>
<stop offset="0.6" stop-color="#3364AA" style="stop-color:#3364AA;stop-color:color(display-p3 0.2000 0.3922 0.6667);stop-opacity:1;"/>
</linearGradient>
<linearGradient id="paint26_linear_2077_92" x1="198.466" y1="118.952" x2="196.141" y2="147.4" gradientUnits="userSpaceOnUse">
<stop stop-color="#00A8DE" style="stop-color:#00A8DE;stop-color:color(display-p3 0.0000 0.6588 0.8706);stop-opacity:1;"/>
<stop offset="0.3" stop-color="#333391" style="stop-color:#333391;stop-color:color(display-p3 0.2000 0.2000 0.5686);stop-opacity:1;"/>
<stop offset="0.6" stop-color="#3364AA" style="stop-color:#3364AA;stop-color:color(display-p3 0.2000 0.3922 0.6667);stop-opacity:1;"/>
</linearGradient>
<linearGradient id="paint27_linear_2077_92" x1="-12.3517" y1="56.1723" x2="90.2005" y2="20.9377" gradientUnits="userSpaceOnUse">
<stop stop-color="#00A8DE" style="stop-color:#00A8DE;stop-color:color(display-p3 0.0000 0.6588 0.8706);stop-opacity:1;"/>
<stop offset="0.2" stop-color="#333391" style="stop-color:#333391;stop-color:color(display-p3 0.2000 0.2000 0.5686);stop-opacity:1;"/>
<stop offset="0.4" stop-color="#3364AA" style="stop-color:#3364AA;stop-color:color(display-p3 0.2000 0.3922 0.6667);stop-opacity:1;"/>
<stop offset="0.6" stop-color="#1EA547" style="stop-color:#1EA547;stop-color:color(display-p3 0.1176 0.6471 0.2784);stop-opacity:1;"/>
<stop offset="0.8" stop-color="#FDE92B" style="stop-color:#FDE92B;stop-color:color(display-p3 0.9922 0.9137 0.1686);stop-opacity:1;"/>
<stop offset="1" stop-color="#009E54" style="stop-color:#009E54;stop-color:color(display-p3 0.0000 0.6196 0.3294);stop-opacity:1;"/>
</linearGradient>
<linearGradient id="paint28_linear_2077_92" x1="-12.3517" y1="56.1723" x2="90.2005" y2="20.9377" gradientUnits="userSpaceOnUse">
<stop stop-color="#00A8DE" style="stop-color:#00A8DE;stop-color:color(display-p3 0.0000 0.6588 0.8706);stop-opacity:1;"/>
<stop offset="0.2" stop-color="#333391" style="stop-color:#333391;stop-color:color(display-p3 0.2000 0.2000 0.5686);stop-opacity:1;"/>
<stop offset="0.4" stop-color="#3364AA" style="stop-color:#3364AA;stop-color:color(display-p3 0.2000 0.3922 0.6667);stop-opacity:1;"/>
<stop offset="0.6" stop-color="#1EA547" style="stop-color:#1EA547;stop-color:color(display-p3 0.1176 0.6471 0.2784);stop-opacity:1;"/>
<stop offset="0.8" stop-color="#FDE92B" style="stop-color:#FDE92B;stop-color:color(display-p3 0.9922 0.9137 0.1686);stop-opacity:1;"/>
<stop offset="1" stop-color="#009E54" style="stop-color:#009E54;stop-color:color(display-p3 0.0000 0.6196 0.3294);stop-opacity:1;"/>
</linearGradient>
<linearGradient id="paint29_linear_2077_92" x1="141.452" y1="140.504" x2="-57.8421" y2="147.75" gradientUnits="userSpaceOnUse">
<stop stop-color="#313691" style="stop-color:#313691;stop-color:color(display-p3 0.1922 0.2118 0.5686);stop-opacity:1;"/>
<stop offset="0.2" stop-color="#225296" style="stop-color:#225296;stop-color:color(display-p3 0.1333 0.3216 0.5882);stop-opacity:1;"/>
<stop offset="0.3" stop-color="#146A9B" style="stop-color:#146A9B;stop-color:color(display-p3 0.0784 0.4157 0.6078);stop-opacity:1;"/>
<stop offset="0.4" stop-color="#0092A2" style="stop-color:#0092A2;stop-color:color(display-p3 0.0000 0.5725 0.6353);stop-opacity:1;"/>
<stop offset="0.5" stop-color="#0099B6" style="stop-color:#0099B6;stop-color:color(display-p3 0.0000 0.6000 0.7137);stop-opacity:1;"/>
<stop offset="0.7" stop-color="#00A1CC" style="stop-color:#00A1CC;stop-color:color(display-p3 0.0000 0.6314 0.8000);stop-opacity:1;"/>
<stop offset="0.9" stop-color="#00A6D9" style="stop-color:#00A6D9;stop-color:color(display-p3 0.0000 0.6510 0.8510);stop-opacity:1;"/>
<stop offset="1" stop-color="#00A8DE" style="stop-color:#00A8DE;stop-color:color(display-p3 0.0000 0.6588 0.8706);stop-opacity:1;"/>
</linearGradient>
<linearGradient id="paint30_linear_2077_92" x1="141.452" y1="140.594" x2="-57.8418" y2="147.821" gradientUnits="userSpaceOnUse">
<stop stop-color="#313691" style="stop-color:#313691;stop-color:color(display-p3 0.1922 0.2118 0.5686);stop-opacity:1;"/>
<stop offset="0.2" stop-color="#225296" style="stop-color:#225296;stop-color:color(display-p3 0.1333 0.3216 0.5882);stop-opacity:1;"/>
<stop offset="0.3" stop-color="#146A9B" style="stop-color:#146A9B;stop-color:color(display-p3 0.0784 0.4157 0.6078);stop-opacity:1;"/>
<stop offset="0.4" stop-color="#0092A2" style="stop-color:#0092A2;stop-color:color(display-p3 0.0000 0.5725 0.6353);stop-opacity:1;"/>
<stop offset="0.5" stop-color="#0099B6" style="stop-color:#0099B6;stop-color:color(display-p3 0.0000 0.6000 0.7137);stop-opacity:1;"/>
<stop offset="0.7" stop-color="#00A1CC" style="stop-color:#00A1CC;stop-color:color(display-p3 0.0000 0.6314 0.8000);stop-opacity:1;"/>
<stop offset="0.9" stop-color="#00A6D9" style="stop-color:#00A6D9;stop-color:color(display-p3 0.0000 0.6510 0.8510);stop-opacity:1;"/>
<stop offset="1" stop-color="#00A8DE" style="stop-color:#00A8DE;stop-color:color(display-p3 0.0000 0.6588 0.8706);stop-opacity:1;"/>
</linearGradient>
<linearGradient id="paint31_linear_2077_92" x1="141.557" y1="143.512" x2="-57.7365" y2="150.758" gradientUnits="userSpaceOnUse">
<stop stop-color="#313691" style="stop-color:#313691;stop-color:color(display-p3 0.1922 0.2118 0.5686);stop-opacity:1;"/>
<stop offset="0.2" stop-color="#225296" style="stop-color:#225296;stop-color:color(display-p3 0.1333 0.3216 0.5882);stop-opacity:1;"/>
<stop offset="0.3" stop-color="#146A9B" style="stop-color:#146A9B;stop-color:color(display-p3 0.0784 0.4157 0.6078);stop-opacity:1;"/>
<stop offset="0.4" stop-color="#0092A2" style="stop-color:#0092A2;stop-color:color(display-p3 0.0000 0.5725 0.6353);stop-opacity:1;"/>
<stop offset="0.5" stop-color="#0099B6" style="stop-color:#0099B6;stop-color:color(display-p3 0.0000 0.6000 0.7137);stop-opacity:1;"/>
<stop offset="0.7" stop-color="#00A1CC" style="stop-color:#00A1CC;stop-color:color(display-p3 0.0000 0.6314 0.8000);stop-opacity:1;"/>
<stop offset="0.9" stop-color="#00A6D9" style="stop-color:#00A6D9;stop-color:color(display-p3 0.0000 0.6510 0.8510);stop-opacity:1;"/>
<stop offset="1" stop-color="#00A8DE" style="stop-color:#00A8DE;stop-color:color(display-p3 0.0000 0.6588 0.8706);stop-opacity:1;"/>
</linearGradient>
<linearGradient id="paint32_linear_2077_92" x1="141.578" y1="143.873" x2="-57.7152" y2="151.1" gradientUnits="userSpaceOnUse">
<stop stop-color="#313691" style="stop-color:#313691;stop-color:color(display-p3 0.1922 0.2118 0.5686);stop-opacity:1;"/>
<stop offset="0.2" stop-color="#225296" style="stop-color:#225296;stop-color:color(display-p3 0.1333 0.3216 0.5882);stop-opacity:1;"/>
<stop offset="0.3" stop-color="#146A9B" style="stop-color:#146A9B;stop-color:color(display-p3 0.0784 0.4157 0.6078);stop-opacity:1;"/>
<stop offset="0.4" stop-color="#0092A2" style="stop-color:#0092A2;stop-color:color(display-p3 0.0000 0.5725 0.6353);stop-opacity:1;"/>
<stop offset="0.5" stop-color="#0099B6" style="stop-color:#0099B6;stop-color:color(display-p3 0.0000 0.6000 0.7137);stop-opacity:1;"/>
<stop offset="0.7" stop-color="#00A1CC" style="stop-color:#00A1CC;stop-color:color(display-p3 0.0000 0.6314 0.8000);stop-opacity:1;"/>
<stop offset="0.9" stop-color="#00A6D9" style="stop-color:#00A6D9;stop-color:color(display-p3 0.0000 0.6510 0.8510);stop-opacity:1;"/>
<stop offset="1" stop-color="#00A8DE" style="stop-color:#00A8DE;stop-color:color(display-p3 0.0000 0.6588 0.8706);stop-opacity:1;"/>
</linearGradient>
<linearGradient id="paint33_linear_2077_92" x1="141.578" y1="144.167" x2="-57.7152" y2="151.394" gradientUnits="userSpaceOnUse">
<stop stop-color="#313691" style="stop-color:#313691;stop-color:color(display-p3 0.1922 0.2118 0.5686);stop-opacity:1;"/>
<stop offset="0.2" stop-color="#225296" style="stop-color:#225296;stop-color:color(display-p3 0.1333 0.3216 0.5882);stop-opacity:1;"/>
<stop offset="0.3" stop-color="#146A9B" style="stop-color:#146A9B;stop-color:color(display-p3 0.0784 0.4157 0.6078);stop-opacity:1;"/>
<stop offset="0.4" stop-color="#0092A2" style="stop-color:#0092A2;stop-color:color(display-p3 0.0000 0.5725 0.6353);stop-opacity:1;"/>
<stop offset="0.5" stop-color="#0099B6" style="stop-color:#0099B6;stop-color:color(display-p3 0.0000 0.6000 0.7137);stop-opacity:1;"/>
<stop offset="0.7" stop-color="#00A1CC" style="stop-color:#00A1CC;stop-color:color(display-p3 0.0000 0.6314 0.8000);stop-opacity:1;"/>
<stop offset="0.9" stop-color="#00A6D9" style="stop-color:#00A6D9;stop-color:color(display-p3 0.0000 0.6510 0.8510);stop-opacity:1;"/>
<stop offset="1" stop-color="#00A8DE" style="stop-color:#00A8DE;stop-color:color(display-p3 0.0000 0.6588 0.8706);stop-opacity:1;"/>
</linearGradient>
<linearGradient id="paint34_linear_2077_92" x1="141.557" y1="143.263" x2="-57.7362" y2="150.49" gradientUnits="userSpaceOnUse">
<stop stop-color="#313691" style="stop-color:#313691;stop-color:color(display-p3 0.1922 0.2118 0.5686);stop-opacity:1;"/>
<stop offset="0.2" stop-color="#225296" style="stop-color:#225296;stop-color:color(display-p3 0.1333 0.3216 0.5882);stop-opacity:1;"/>
<stop offset="0.3" stop-color="#146A9B" style="stop-color:#146A9B;stop-color:color(display-p3 0.0784 0.4157 0.6078);stop-opacity:1;"/>
<stop offset="0.4" stop-color="#0092A2" style="stop-color:#0092A2;stop-color:color(display-p3 0.0000 0.5725 0.6353);stop-opacity:1;"/>
<stop offset="0.5" stop-color="#0099B6" style="stop-color:#0099B6;stop-color:color(display-p3 0.0000 0.6000 0.7137);stop-opacity:1;"/>
<stop offset="0.7" stop-color="#00A1CC" style="stop-color:#00A1CC;stop-color:color(display-p3 0.0000 0.6314 0.8000);stop-opacity:1;"/>
<stop offset="0.9" stop-color="#00A6D9" style="stop-color:#00A6D9;stop-color:color(display-p3 0.0000 0.6510 0.8510);stop-opacity:1;"/>
<stop offset="1" stop-color="#00A8DE" style="stop-color:#00A8DE;stop-color:color(display-p3 0.0000 0.6588 0.8706);stop-opacity:1;"/>
</linearGradient>
<linearGradient id="paint35_linear_2077_92" x1="141.599" y1="144.642" x2="-57.6943" y2="151.869" gradientUnits="userSpaceOnUse">
<stop stop-color="#313691" style="stop-color:#313691;stop-color:color(display-p3 0.1922 0.2118 0.5686);stop-opacity:1;"/>
<stop offset="0.2" stop-color="#225296" style="stop-color:#225296;stop-color:color(display-p3 0.1333 0.3216 0.5882);stop-opacity:1;"/>
<stop offset="0.3" stop-color="#146A9B" style="stop-color:#146A9B;stop-color:color(display-p3 0.0784 0.4157 0.6078);stop-opacity:1;"/>
<stop offset="0.4" stop-color="#0092A2" style="stop-color:#0092A2;stop-color:color(display-p3 0.0000 0.5725 0.6353);stop-opacity:1;"/>
<stop offset="0.5" stop-color="#0099B6" style="stop-color:#0099B6;stop-color:color(display-p3 0.0000 0.6000 0.7137);stop-opacity:1;"/>
<stop offset="0.7" stop-color="#00A1CC" style="stop-color:#00A1CC;stop-color:color(display-p3 0.0000 0.6314 0.8000);stop-opacity:1;"/>
<stop offset="0.9" stop-color="#00A6D9" style="stop-color:#00A6D9;stop-color:color(display-p3 0.0000 0.6510 0.8510);stop-opacity:1;"/>
<stop offset="1" stop-color="#00A8DE" style="stop-color:#00A8DE;stop-color:color(display-p3 0.0000 0.6588 0.8706);stop-opacity:1;"/>
</linearGradient>
<linearGradient id="paint36_linear_2077_92" x1="78.6137" y1="136.23" x2="64.8906" y2="150.071" gradientUnits="userSpaceOnUse">
<stop stop-color="#333391" style="stop-color:#333391;stop-color:color(display-p3 0.2000 0.2000 0.5686);stop-opacity:1;"/>
<stop offset="0.1" stop-color="#1F5697" style="stop-color:#1F5697;stop-color:color(display-p3 0.1216 0.3373 0.5922);stop-opacity:1;"/>
<stop offset="0.2" stop-color="#0E769D" style="stop-color:#0E769D;stop-color:color(display-p3 0.0549 0.4627 0.6157);stop-opacity:1;"/>
<stop offset="0.3" stop-color="#038AA0" style="stop-color:#038AA0;stop-color:color(display-p3 0.0118 0.5412 0.6275);stop-opacity:1;"/>
<stop offset="0.4" stop-color="#0092A2" style="stop-color:#0092A2;stop-color:color(display-p3 0.0000 0.5725 0.6353);stop-opacity:1;"/>
</linearGradient>
<linearGradient id="paint37_linear_2077_92" x1="141.22" y1="133.674" x2="134.388" y2="131.396" gradientUnits="userSpaceOnUse">
<stop stop-color="#00A8DE" style="stop-color:#00A8DE;stop-color:color(display-p3 0.0000 0.6588 0.8706);stop-opacity:1;"/>
<stop offset="0.2" stop-color="#333391" style="stop-color:#333391;stop-color:color(display-p3 0.2000 0.2000 0.5686);stop-opacity:1;"/>
<stop offset="0.4" stop-color="#3364AA" style="stop-color:#3364AA;stop-color:color(display-p3 0.2000 0.3922 0.6667);stop-opacity:1;"/>
<stop offset="0.6" stop-color="#1EA547" style="stop-color:#1EA547;stop-color:color(display-p3 0.1176 0.6471 0.2784);stop-opacity:1;"/>
<stop offset="0.8" stop-color="#FDE92B" style="stop-color:#FDE92B;stop-color:color(display-p3 0.9922 0.9137 0.1686);stop-opacity:1;"/>
<stop offset="1" stop-color="#009E54" style="stop-color:#009E54;stop-color:color(display-p3 0.0000 0.6196 0.3294);stop-opacity:1;"/>
</linearGradient>
<linearGradient id="paint38_linear_2077_92" x1="141.557" y1="132.634" x2="134.726" y2="130.356" gradientUnits="userSpaceOnUse">
<stop stop-color="#00A8DE" style="stop-color:#00A8DE;stop-color:color(display-p3 0.0000 0.6588 0.8706);stop-opacity:1;"/>
<stop offset="0.2" stop-color="#333391" style="stop-color:#333391;stop-color:color(display-p3 0.2000 0.2000 0.5686);stop-opacity:1;"/>
<stop offset="0.4" stop-color="#3364AA" style="stop-color:#3364AA;stop-color:color(display-p3 0.2000 0.3922 0.6667);stop-opacity:1;"/>
<stop offset="0.6" stop-color="#1EA547" style="stop-color:#1EA547;stop-color:color(display-p3 0.1176 0.6471 0.2784);stop-opacity:1;"/>
<stop offset="0.8" stop-color="#FDE92B" style="stop-color:#FDE92B;stop-color:color(display-p3 0.9922 0.9137 0.1686);stop-opacity:1;"/>
<stop offset="1" stop-color="#009E54" style="stop-color:#009E54;stop-color:color(display-p3 0.0000 0.6196 0.3294);stop-opacity:1;"/>
</linearGradient>
<linearGradient id="paint39_linear_2077_92" x1="141.916" y1="131.571" x2="135.085" y2="129.293" gradientUnits="userSpaceOnUse">
<stop stop-color="#00A8DE" style="stop-color:#00A8DE;stop-color:color(display-p3 0.0000 0.6588 0.8706);stop-opacity:1;"/>
<stop offset="0.2" stop-color="#333391" style="stop-color:#333391;stop-color:color(display-p3 0.2000 0.2000 0.5686);stop-opacity:1;"/>
<stop offset="0.4" stop-color="#3364AA" style="stop-color:#3364AA;stop-color:color(display-p3 0.2000 0.3922 0.6667);stop-opacity:1;"/>
<stop offset="0.6" stop-color="#1EA547" style="stop-color:#1EA547;stop-color:color(display-p3 0.1176 0.6471 0.2784);stop-opacity:1;"/>
<stop offset="0.8" stop-color="#FDE92B" style="stop-color:#FDE92B;stop-color:color(display-p3 0.9922 0.9137 0.1686);stop-opacity:1;"/>
<stop offset="1" stop-color="#009E54" style="stop-color:#009E54;stop-color:color(display-p3 0.0000 0.6196 0.3294);stop-opacity:1;"/>
</linearGradient>
<linearGradient id="paint40_linear_2077_92" x1="169.737" y1="128.953" x2="176.568" y2="131.231" gradientUnits="userSpaceOnUse">
<stop stop-color="#00A8DE" style="stop-color:#00A8DE;stop-color:color(display-p3 0.0000 0.6588 0.8706);stop-opacity:1;"/>
<stop offset="0.2" stop-color="#333391" style="stop-color:#333391;stop-color:color(display-p3 0.2000 0.2000 0.5686);stop-opacity:1;"/>
<stop offset="0.4" stop-color="#3364AA" style="stop-color:#3364AA;stop-color:color(display-p3 0.2000 0.3922 0.6667);stop-opacity:1;"/>
<stop offset="0.6" stop-color="#1EA547" style="stop-color:#1EA547;stop-color:color(display-p3 0.1176 0.6471 0.2784);stop-opacity:1;"/>
<stop offset="0.8" stop-color="#FDE92B" style="stop-color:#FDE92B;stop-color:color(display-p3 0.9922 0.9137 0.1686);stop-opacity:1;"/>
<stop offset="1" stop-color="#009E54" style="stop-color:#009E54;stop-color:color(display-p3 0.0000 0.6196 0.3294);stop-opacity:1;"/>
</linearGradient>
<linearGradient id="paint41_linear_2077_92" x1="169.378" y1="129.994" x2="176.23" y2="132.271" gradientUnits="userSpaceOnUse">
<stop stop-color="#00A8DE" style="stop-color:#00A8DE;stop-color:color(display-p3 0.0000 0.6588 0.8706);stop-opacity:1;"/>
<stop offset="0.2" stop-color="#333391" style="stop-color:#333391;stop-color:color(display-p3 0.2000 0.2000 0.5686);stop-opacity:1;"/>
<stop offset="0.4" stop-color="#3364AA" style="stop-color:#3364AA;stop-color:color(display-p3 0.2000 0.3922 0.6667);stop-opacity:1;"/>
<stop offset="0.6" stop-color="#1EA547" style="stop-color:#1EA547;stop-color:color(display-p3 0.1176 0.6471 0.2784);stop-opacity:1;"/>
<stop offset="0.8" stop-color="#FDE92B" style="stop-color:#FDE92B;stop-color:color(display-p3 0.9922 0.9137 0.1686);stop-opacity:1;"/>
<stop offset="1" stop-color="#009E54" style="stop-color:#009E54;stop-color:color(display-p3 0.0000 0.6196 0.3294);stop-opacity:1;"/>
</linearGradient>
<linearGradient id="paint42_linear_2077_92" x1="169.019" y1="131.057" x2="175.873" y2="133.355" gradientUnits="userSpaceOnUse">
<stop stop-color="#00A8DE" style="stop-color:#00A8DE;stop-color:color(display-p3 0.0000 0.6588 0.8706);stop-opacity:1;"/>
<stop offset="0.2" stop-color="#333391" style="stop-color:#333391;stop-color:color(display-p3 0.2000 0.2000 0.5686);stop-opacity:1;"/>
<stop offset="0.4" stop-color="#3364AA" style="stop-color:#3364AA;stop-color:color(display-p3 0.2000 0.3922 0.6667);stop-opacity:1;"/>
<stop offset="0.6" stop-color="#1EA547" style="stop-color:#1EA547;stop-color:color(display-p3 0.1176 0.6471 0.2784);stop-opacity:1;"/>
<stop offset="0.8" stop-color="#FDE92B" style="stop-color:#FDE92B;stop-color:color(display-p3 0.9922 0.9137 0.1686);stop-opacity:1;"/>
<stop offset="1" stop-color="#009E54" style="stop-color:#009E54;stop-color:color(display-p3 0.0000 0.6196 0.3294);stop-opacity:1;"/>
</linearGradient>
<linearGradient id="paint43_linear_2077_92" x1="153.1" y1="130.169" x2="153.245" y2="136.794" gradientUnits="userSpaceOnUse">
<stop stop-color="#00A8DE" style="stop-color:#00A8DE;stop-color:color(display-p3 0.0000 0.6588 0.8706);stop-opacity:1;"/>
<stop offset="0.3" stop-color="#333391" style="stop-color:#333391;stop-color:color(display-p3 0.2000 0.2000 0.5686);stop-opacity:1;"/>
<stop offset="0.6" stop-color="#3364AA" style="stop-color:#3364AA;stop-color:color(display-p3 0.2000 0.3922 0.6667);stop-opacity:1;"/>
</linearGradient>
<linearGradient id="paint44_linear_2077_92" x1="156.961" y1="128.812" x2="157.155" y2="138.445" gradientUnits="userSpaceOnUse">
<stop stop-color="#00A8DE" style="stop-color:#00A8DE;stop-color:color(display-p3 0.0000 0.6588 0.8706);stop-opacity:1;"/>
<stop offset="0.3" stop-color="#333391" style="stop-color:#333391;stop-color:color(display-p3 0.2000 0.2000 0.5686);stop-opacity:1;"/>
<stop offset="0.6" stop-color="#3364AA" style="stop-color:#3364AA;stop-color:color(display-p3 0.2000 0.3922 0.6667);stop-opacity:1;"/>
</linearGradient>
<linearGradient id="paint45_linear_2077_92" x1="160.379" y1="128.744" x2="160.597" y2="138.377" gradientUnits="userSpaceOnUse">
<stop stop-color="#00A8DE" style="stop-color:#00A8DE;stop-color:color(display-p3 0.0000 0.6588 0.8706);stop-opacity:1;"/>
<stop offset="0.3" stop-color="#333391" style="stop-color:#333391;stop-color:color(display-p3 0.2000 0.2000 0.5686);stop-opacity:1;"/>
<stop offset="0.6" stop-color="#3364AA" style="stop-color:#3364AA;stop-color:color(display-p3 0.2000 0.3922 0.6667);stop-opacity:1;"/>
</linearGradient>
<linearGradient id="paint46_linear_2077_92" x1="163.122" y1="128.699" x2="163.316" y2="138.332" gradientUnits="userSpaceOnUse">
<stop stop-color="#00A8DE" style="stop-color:#00A8DE;stop-color:color(display-p3 0.0000 0.6588 0.8706);stop-opacity:1;"/>
<stop offset="0.3" stop-color="#333391" style="stop-color:#333391;stop-color:color(display-p3 0.2000 0.2000 0.5686);stop-opacity:1;"/>
<stop offset="0.6" stop-color="#3364AA" style="stop-color:#3364AA;stop-color:color(display-p3 0.2000 0.3922 0.6667);stop-opacity:1;"/>
</linearGradient>
<linearGradient id="paint47_linear_2077_92" x1="166.097" y1="128.631" x2="166.291" y2="138.264" gradientUnits="userSpaceOnUse">
<stop stop-color="#00A8DE" style="stop-color:#00A8DE;stop-color:color(display-p3 0.0000 0.6588 0.8706);stop-opacity:1;"/>
<stop offset="0.3" stop-color="#333391" style="stop-color:#333391;stop-color:color(display-p3 0.2000 0.2000 0.5686);stop-opacity:1;"/>
<stop offset="0.6" stop-color="#3364AA" style="stop-color:#3364AA;stop-color:color(display-p3 0.2000 0.3922 0.6667);stop-opacity:1;"/>
</linearGradient>
<linearGradient id="paint48_linear_2077_92" x1="144.701" y1="129.875" x2="144.726" y2="136.049" gradientUnits="userSpaceOnUse">
<stop stop-color="#00A8DE" style="stop-color:#00A8DE;stop-color:color(display-p3 0.0000 0.6588 0.8706);stop-opacity:1;"/>
<stop offset="0.3" stop-color="#333391" style="stop-color:#333391;stop-color:color(display-p3 0.2000 0.2000 0.5686);stop-opacity:1;"/>
<stop offset="0.6" stop-color="#3364AA" style="stop-color:#3364AA;stop-color:color(display-p3 0.2000 0.3922 0.6667);stop-opacity:1;"/>
</linearGradient>
<linearGradient id="paint49_linear_2077_92" x1="148.078" y1="129.875" x2="148.078" y2="136.049" gradientUnits="userSpaceOnUse">
<stop stop-color="#00A8DE" style="stop-color:#00A8DE;stop-color:color(display-p3 0.0000 0.6588 0.8706);stop-opacity:1;"/>
<stop offset="0.3" stop-color="#333391" style="stop-color:#333391;stop-color:color(display-p3 0.2000 0.2000 0.5686);stop-opacity:1;"/>
<stop offset="0.6" stop-color="#3364AA" style="stop-color:#3364AA;stop-color:color(display-p3 0.2000 0.3922 0.6667);stop-opacity:1;"/>
</linearGradient>
<linearGradient id="paint50_linear_2077_92" x1="151.39" y1="129.852" x2="151.39" y2="136.026" gradientUnits="userSpaceOnUse">
<stop stop-color="#00A8DE" style="stop-color:#00A8DE;stop-color:color(display-p3 0.0000 0.6588 0.8706);stop-opacity:1;"/>
<stop offset="0.3" stop-color="#333391" style="stop-color:#333391;stop-color:color(display-p3 0.2000 0.2000 0.5686);stop-opacity:1;"/>
<stop offset="0.6" stop-color="#3364AA" style="stop-color:#3364AA;stop-color:color(display-p3 0.2000 0.3922 0.6667);stop-opacity:1;"/>
</linearGradient>
<clipPath id="clip0_2077_92">
<rect width="211" height="155" fill="white" style="fill:white;fill-opacity:1;"/>
</clipPath>
</defs>
</svg>
